solid OpenSCAD_Model
  facet normal 1 0 0
    outer loop
      vertex -2.875 -1.50831 60
      vertex -2.875 -2.875 59.7
      vertex -2.875 -1.50831 59.4
    endloop
  endfacet
  facet normal 1 -0 0
    outer loop
      vertex -2.875 -5 60
      vertex -2.875 -2.875 59.7
      vertex -2.875 -1.50831 60
    endloop
  endfacet
  facet normal 1 0 0
    outer loop
      vertex -2.875 -2.875 59.7
      vertex -2.875 -5 60
      vertex -2.875 -5 59.7
    endloop
  endfacet
  facet normal 1 0 0
    outer loop
      vertex -2.875 -1.50831 59.4
      vertex -2.875 -2.875 59.7
      vertex -2.875 -2.875 59.4
    endloop
  endfacet
  facet normal 1 0 0
    outer loop
      vertex -2.875 5 60
      vertex -2.875 2.875 59.7
      vertex -2.875 5 59.7
    endloop
  endfacet
  facet normal 1 -0 0
    outer loop
      vertex -2.875 1.50831 60
      vertex -2.875 2.875 59.7
      vertex -2.875 5 60
    endloop
  endfacet
  facet normal 1 0 0
    outer loop
      vertex -2.875 1.50831 59.4
      vertex -2.875 2.875 59.7
      vertex -2.875 1.50831 60
    endloop
  endfacet
  facet normal 1 0 0
    outer loop
      vertex -2.875 2.875 59.7
      vertex -2.875 1.50831 59.4
      vertex -2.875 2.875 59.4
    endloop
  endfacet
  facet normal 0 0 1
    outer loop
      vertex -2.875 -1.50831 60
      vertex -2.95712 -5.12189 60
      vertex -2.875 -5 60
    endloop
  endfacet
  facet normal 0 0 1
    outer loop
      vertex -5.91425 0 60
      vertex -2.875 -1.50831 60
      vertex -3.02177 -1.1964 60
    endloop
  endfacet
  facet normal 0 0 1
    outer loop
      vertex -5.91425 0 60
      vertex -3.02177 -1.1964 60
      vertex -3.14789 -0.808242 60
    endloop
  endfacet
  facet normal 0 0 1
    outer loop
      vertex -5.91425 0 60
      vertex -3.14789 -0.808242 60
      vertex -3.22437 -0.407332 60
    endloop
  endfacet
  facet normal -0 0 1
    outer loop
      vertex -5.91425 0 60
      vertex -3.22437 -0.407332 60
      vertex -3.25 0 60
    endloop
  endfacet
  facet normal 0 0 1
    outer loop
      vertex -2.875 -1.50831 60
      vertex -5.91425 0 60
      vertex -2.95712 -5.12189 60
    endloop
  endfacet
  facet normal 0 0 1
    outer loop
      vertex 2.95712 5.12189 60
      vertex -2.875 5 60
      vertex 2.875 5 60
    endloop
  endfacet
  facet normal -0 0 1
    outer loop
      vertex -2.95712 5.12189 60
      vertex -2.875 5 60
      vertex 2.95712 5.12189 60
    endloop
  endfacet
  facet normal 0 0 1
    outer loop
      vertex -2.95712 5.12189 60
      vertex -2.875 1.50831 60
      vertex -2.875 5 60
    endloop
  endfacet
  facet normal 0 0 1
    outer loop
      vertex -5.91425 0 60
      vertex -2.875 1.50831 60
      vertex -2.95712 5.12189 60
    endloop
  endfacet
  facet normal 0 0 1
    outer loop
      vertex -2.875 1.50831 60
      vertex -5.91425 0 60
      vertex -3.02177 1.1964 60
    endloop
  endfacet
  facet normal 0 0 1
    outer loop
      vertex -3.02177 1.1964 60
      vertex -5.91425 0 60
      vertex -3.14789 0.808242 60
    endloop
  endfacet
  facet normal 0 0 1
    outer loop
      vertex -3.14789 0.808242 60
      vertex -5.91425 0 60
      vertex -3.22437 0.407332 60
    endloop
  endfacet
  facet normal 0 0 1
    outer loop
      vertex -3.22437 0.407332 60
      vertex -5.91425 0 60
      vertex -3.25 0 60
    endloop
  endfacet
  facet normal 0 0 1
    outer loop
      vertex 5.91425 0 60
      vertex 3.22437 0.407332 60
      vertex 3.25 0 60
    endloop
  endfacet
  facet normal 0 0 1
    outer loop
      vertex 5.91425 0 60
      vertex 3.14789 0.808242 60
      vertex 3.22437 0.407332 60
    endloop
  endfacet
  facet normal 0 0 1
    outer loop
      vertex 5.91425 0 60
      vertex 3.02177 1.1964 60
      vertex 3.14789 0.808242 60
    endloop
  endfacet
  facet normal -0 0 1
    outer loop
      vertex 2.875 1.50831 60
      vertex 5.91425 0 60
      vertex 2.95712 5.12189 60
    endloop
  endfacet
  facet normal 0 0 1
    outer loop
      vertex 2.875 1.50831 60
      vertex 2.95712 5.12189 60
      vertex 2.875 5 60
    endloop
  endfacet
  facet normal 0 0 1
    outer loop
      vertex 5.91425 0 60
      vertex 2.875 1.50831 60
      vertex 3.02177 1.1964 60
    endloop
  endfacet
  facet normal 0 0 1
    outer loop
      vertex 3.22437 -0.407332 60
      vertex 5.91425 0 60
      vertex 3.25 0 60
    endloop
  endfacet
  facet normal 0 0 1
    outer loop
      vertex 3.14789 -0.808242 60
      vertex 5.91425 0 60
      vertex 3.22437 -0.407332 60
    endloop
  endfacet
  facet normal 0 0 1
    outer loop
      vertex 3.02177 -1.1964 60
      vertex 5.91425 0 60
      vertex 3.14789 -0.808242 60
    endloop
  endfacet
  facet normal 0 0 1
    outer loop
      vertex 2.875 -1.50831 60
      vertex 5.91425 0 60
      vertex 3.02177 -1.1964 60
    endloop
  endfacet
  facet normal 0 0 1
    outer loop
      vertex 5.91425 0 60
      vertex 2.875 -1.50831 60
      vertex 2.95712 -5.12189 60
    endloop
  endfacet
  facet normal -0 0 1
    outer loop
      vertex 2.875 -5 60
      vertex 2.95712 -5.12189 60
      vertex 2.875 -1.50831 60
    endloop
  endfacet
  facet normal -0 0 1
    outer loop
      vertex -2.875 -5 60
      vertex 2.95712 -5.12189 60
      vertex 2.875 -5 60
    endloop
  endfacet
  facet normal 0 0 1
    outer loop
      vertex 2.95712 -5.12189 60
      vertex -2.875 -5 60
      vertex -2.95712 -5.12189 60
    endloop
  endfacet
  facet normal -1 0 0
    outer loop
      vertex 2.875 -2.875 59.7
      vertex 2.875 -1.50831 59.4
      vertex 2.875 -2.875 59.4
    endloop
  endfacet
  facet normal -1 0 0
    outer loop
      vertex 2.875 -1.50831 59.4
      vertex 2.875 -2.875 59.7
      vertex 2.875 -1.50831 60
    endloop
  endfacet
  facet normal -1 0 0
    outer loop
      vertex 2.875 -5 60
      vertex 2.875 -2.875 59.7
      vertex 2.875 -5 59.7
    endloop
  endfacet
  facet normal -1 0 0
    outer loop
      vertex 2.875 -2.875 59.7
      vertex 2.875 -5 60
      vertex 2.875 -1.50831 60
    endloop
  endfacet
  facet normal -1 0 0
    outer loop
      vertex 2.875 2.875 59.4
      vertex 2.875 1.50831 59.4
      vertex 2.875 2.875 59.7
    endloop
  endfacet
  facet normal -1 0 0
    outer loop
      vertex 2.875 2.875 59.7
      vertex 2.875 5 60
      vertex 2.875 5 59.7
    endloop
  endfacet
  facet normal -1 0 0
    outer loop
      vertex 2.875 2.875 59.7
      vertex 2.875 1.50831 60
      vertex 2.875 5 60
    endloop
  endfacet
  facet normal -1 0 0
    outer loop
      vertex 2.875 1.50831 60
      vertex 2.875 2.875 59.7
      vertex 2.875 1.50831 59.4
    endloop
  endfacet
  facet normal -0 0 1
    outer loop
      vertex 1.50327 -2.875 59.7
      vertex 2.875 -5 59.7
      vertex 2.875 -2.875 59.7
    endloop
  endfacet
  facet normal -0 0 1
    outer loop
      vertex 1.38378 -2.94069 59.7
      vertex 2.875 -5 59.7
      vertex 1.50327 -2.875 59.7
    endloop
  endfacet
  facet normal -0 0 1
    outer loop
      vertex 1.0043 -3.09093 59.7
      vertex 2.875 -5 59.7
      vertex 1.38378 -2.94069 59.7
    endloop
  endfacet
  facet normal -0 0 1
    outer loop
      vertex 0.608989 -3.19243 59.7
      vertex 2.875 -5 59.7
      vertex 1.0043 -3.09093 59.7
    endloop
  endfacet
  facet normal -0 0 1
    outer loop
      vertex 0.204069 -3.24359 59.7
      vertex 2.875 -5 59.7
      vertex 0.608989 -3.19243 59.7
    endloop
  endfacet
  facet normal -0 0 1
    outer loop
      vertex -0.204069 -3.24359 59.7
      vertex 2.875 -5 59.7
      vertex 0.204069 -3.24359 59.7
    endloop
  endfacet
  facet normal 0 0 1
    outer loop
      vertex -2.875 -5 59.7
      vertex -0.204069 -3.24359 59.7
      vertex -0.608989 -3.19243 59.7
    endloop
  endfacet
  facet normal 0 0 1
    outer loop
      vertex -2.875 -5 59.7
      vertex -0.608989 -3.19243 59.7
      vertex -1.0043 -3.09093 59.7
    endloop
  endfacet
  facet normal 0 0 1
    outer loop
      vertex -2.875 -5 59.7
      vertex -1.0043 -3.09093 59.7
      vertex -1.38378 -2.94069 59.7
    endloop
  endfacet
  facet normal 0 0 1
    outer loop
      vertex -2.875 -5 59.7
      vertex -1.50327 -2.875 59.7
      vertex -2.875 -2.875 59.7
    endloop
  endfacet
  facet normal 0 0 1
    outer loop
      vertex -1.50327 -2.875 59.7
      vertex -2.875 -5 59.7
      vertex -1.38378 -2.94069 59.7
    endloop
  endfacet
  facet normal 0 0 1
    outer loop
      vertex -0.204069 -3.24359 59.7
      vertex -2.875 -5 59.7
      vertex 2.875 -5 59.7
    endloop
  endfacet
  facet normal 0 0 1
    outer loop
      vertex 2.875 5 59.7
      vertex 1.50327 2.875 59.7
      vertex 2.875 2.875 59.7
    endloop
  endfacet
  facet normal 0 0 1
    outer loop
      vertex 2.875 5 59.7
      vertex 1.38378 2.94069 59.7
      vertex 1.50327 2.875 59.7
    endloop
  endfacet
  facet normal 0 0 1
    outer loop
      vertex 2.875 5 59.7
      vertex 1.0043 3.09093 59.7
      vertex 1.38378 2.94069 59.7
    endloop
  endfacet
  facet normal 0 0 1
    outer loop
      vertex 2.875 5 59.7
      vertex 0.608989 3.19243 59.7
      vertex 1.0043 3.09093 59.7
    endloop
  endfacet
  facet normal 0 0 1
    outer loop
      vertex 2.875 5 59.7
      vertex 0.204069 3.24359 59.7
      vertex 0.608989 3.19243 59.7
    endloop
  endfacet
  facet normal 0 0 1
    outer loop
      vertex 2.875 5 59.7
      vertex -0.204069 3.24359 59.7
      vertex 0.204069 3.24359 59.7
    endloop
  endfacet
  facet normal -0 0 1
    outer loop
      vertex -2.875 5 59.7
      vertex -0.204069 3.24359 59.7
      vertex 2.875 5 59.7
    endloop
  endfacet
  facet normal 0 0 1
    outer loop
      vertex -0.204069 3.24359 59.7
      vertex -2.875 5 59.7
      vertex -0.608989 3.19243 59.7
    endloop
  endfacet
  facet normal 0 0 1
    outer loop
      vertex -0.608989 3.19243 59.7
      vertex -2.875 5 59.7
      vertex -1.0043 3.09093 59.7
    endloop
  endfacet
  facet normal 0 0 1
    outer loop
      vertex -1.0043 3.09093 59.7
      vertex -2.875 5 59.7
      vertex -1.38378 2.94069 59.7
    endloop
  endfacet
  facet normal 0 0 1
    outer loop
      vertex -2.875 5 59.7
      vertex -1.50327 2.875 59.7
      vertex -1.38378 2.94069 59.7
    endloop
  endfacet
  facet normal 0 0 1
    outer loop
      vertex -1.50327 2.875 59.7
      vertex -2.875 5 59.7
      vertex -2.875 2.875 59.7
    endloop
  endfacet
  facet normal 0 1 -0
    outer loop
      vertex 2.875 -5 59.7
      vertex -2.875 -5 60
      vertex 2.875 -5 60
    endloop
  endfacet
  facet normal 0 1 0
    outer loop
      vertex -2.875 -5 60
      vertex 2.875 -5 59.7
      vertex -2.875 -5 59.7
    endloop
  endfacet
  facet normal 0 -1 0
    outer loop
      vertex -2.875 5 59.7
      vertex 2.875 5 60
      vertex -2.875 5 60
    endloop
  endfacet
  facet normal 0 -1 -0
    outer loop
      vertex 2.875 5 60
      vertex -2.875 5 59.7
      vertex 2.875 5 59.7
    endloop
  endfacet
  facet normal 0 -1 0
    outer loop
      vertex 1.50327 2.875 59.4
      vertex 2.875 2.875 59.7
      vertex 1.50327 2.875 59.7
    endloop
  endfacet
  facet normal 0 -1 -0
    outer loop
      vertex 2.875 2.875 59.7
      vertex 1.50327 2.875 59.4
      vertex 2.875 2.875 59.4
    endloop
  endfacet
  facet normal 0 -1 0
    outer loop
      vertex -2.875 2.875 59.4
      vertex -1.50327 2.875 59.7
      vertex -2.875 2.875 59.7
    endloop
  endfacet
  facet normal 0 -1 -0
    outer loop
      vertex -1.50327 2.875 59.7
      vertex -2.875 2.875 59.4
      vertex -1.50327 2.875 59.4
    endloop
  endfacet
  facet normal 0 0 1
    outer loop
      vertex -1.74144 -2.74407 59.4
      vertex -2.875 -2.875 59.4
      vertex -1.50327 -2.875 59.4
    endloop
  endfacet
  facet normal 0 0 1
    outer loop
      vertex -2.07163 -2.50417 59.4
      vertex -2.875 -2.875 59.4
      vertex -1.74144 -2.74407 59.4
    endloop
  endfacet
  facet normal 0 0 1
    outer loop
      vertex -2.36915 -2.22478 59.4
      vertex -2.875 -2.875 59.4
      vertex -2.07163 -2.50417 59.4
    endloop
  endfacet
  facet normal 0 0 1
    outer loop
      vertex -2.6293 -1.9103 59.4
      vertex -2.875 -2.875 59.4
      vertex -2.36915 -2.22478 59.4
    endloop
  endfacet
  facet normal 0 0 1
    outer loop
      vertex -2.848 -1.5657 59.4
      vertex -2.875 -2.875 59.4
      vertex -2.6293 -1.9103 59.4
    endloop
  endfacet
  facet normal 0 0 1
    outer loop
      vertex -2.875 -2.875 59.4
      vertex -2.848 -1.5657 59.4
      vertex -2.875 -1.50831 59.4
    endloop
  endfacet
  facet normal 0 0 1
    outer loop
      vertex 2.875 2.875 59.4
      vertex 2.848 1.5657 59.4
      vertex 2.875 1.50831 59.4
    endloop
  endfacet
  facet normal 0 0 1
    outer loop
      vertex 2.875 2.875 59.4
      vertex 2.6293 1.9103 59.4
      vertex 2.848 1.5657 59.4
    endloop
  endfacet
  facet normal 0 0 1
    outer loop
      vertex 2.875 2.875 59.4
      vertex 2.36915 2.22478 59.4
      vertex 2.6293 1.9103 59.4
    endloop
  endfacet
  facet normal 0 0 1
    outer loop
      vertex 2.875 2.875 59.4
      vertex 2.07163 2.50417 59.4
      vertex 2.36915 2.22478 59.4
    endloop
  endfacet
  facet normal 0 0 1
    outer loop
      vertex 2.875 2.875 59.4
      vertex 1.74144 2.74407 59.4
      vertex 2.07163 2.50417 59.4
    endloop
  endfacet
  facet normal 0 -0 1
    outer loop
      vertex 1.74144 2.74407 59.4
      vertex 2.875 2.875 59.4
      vertex 1.50327 2.875 59.4
    endloop
  endfacet
  facet normal -0 0 1
    outer loop
      vertex -2.875 2.875 59.4
      vertex -1.74144 2.74407 59.4
      vertex -1.50327 2.875 59.4
    endloop
  endfacet
  facet normal 0 0 1
    outer loop
      vertex -2.875 2.875 59.4
      vertex -2.07163 2.50417 59.4
      vertex -1.74144 2.74407 59.4
    endloop
  endfacet
  facet normal 0 0 1
    outer loop
      vertex -2.875 2.875 59.4
      vertex -2.36915 2.22478 59.4
      vertex -2.07163 2.50417 59.4
    endloop
  endfacet
  facet normal 0 0 1
    outer loop
      vertex -2.875 2.875 59.4
      vertex -2.6293 1.9103 59.4
      vertex -2.36915 2.22478 59.4
    endloop
  endfacet
  facet normal 0 0 1
    outer loop
      vertex -2.875 2.875 59.4
      vertex -2.848 1.5657 59.4
      vertex -2.6293 1.9103 59.4
    endloop
  endfacet
  facet normal 0 0 1
    outer loop
      vertex -2.848 1.5657 59.4
      vertex -2.875 2.875 59.4
      vertex -2.875 1.50831 59.4
    endloop
  endfacet
  facet normal -0 0 1
    outer loop
      vertex 2.848 -1.5657 59.4
      vertex 2.875 -2.875 59.4
      vertex 2.875 -1.50831 59.4
    endloop
  endfacet
  facet normal -0 0 1
    outer loop
      vertex 2.6293 -1.9103 59.4
      vertex 2.875 -2.875 59.4
      vertex 2.848 -1.5657 59.4
    endloop
  endfacet
  facet normal -0 0 1
    outer loop
      vertex 2.36915 -2.22478 59.4
      vertex 2.875 -2.875 59.4
      vertex 2.6293 -1.9103 59.4
    endloop
  endfacet
  facet normal -0 0 1
    outer loop
      vertex 2.07163 -2.50417 59.4
      vertex 2.875 -2.875 59.4
      vertex 2.36915 -2.22478 59.4
    endloop
  endfacet
  facet normal -0 0 1
    outer loop
      vertex 1.74144 -2.74407 59.4
      vertex 2.875 -2.875 59.4
      vertex 2.07163 -2.50417 59.4
    endloop
  endfacet
  facet normal 0 0 1
    outer loop
      vertex 2.875 -2.875 59.4
      vertex 1.74144 -2.74407 59.4
      vertex 1.50327 -2.875 59.4
    endloop
  endfacet
  facet normal 0 1 -0
    outer loop
      vertex 2.875 -2.875 59.4
      vertex 1.50327 -2.875 59.7
      vertex 2.875 -2.875 59.7
    endloop
  endfacet
  facet normal 0 1 0
    outer loop
      vertex 1.50327 -2.875 59.7
      vertex 2.875 -2.875 59.4
      vertex 1.50327 -2.875 59.4
    endloop
  endfacet
  facet normal 0 1 -0
    outer loop
      vertex -1.50327 -2.875 59.4
      vertex -2.875 -2.875 59.7
      vertex -1.50327 -2.875 59.7
    endloop
  endfacet
  facet normal 0 1 0
    outer loop
      vertex -2.875 -2.875 59.7
      vertex -1.50327 -2.875 59.4
      vertex -2.875 -2.875 59.4
    endloop
  endfacet
  facet normal 0 0 1
    outer loop
      vertex 5.91425 0 65
      vertex 7 0 65
      vertex 6.9448 0.877332 65
    endloop
  endfacet
  facet normal 0 0 1
    outer loop
      vertex 5.91425 0 65
      vertex 6.9448 0.877332 65
      vertex 6.78008 1.74083 65
    endloop
  endfacet
  facet normal 0 0 1
    outer loop
      vertex 7 0 65
      vertex 5.91425 0 65
      vertex 6.9448 -0.877332 65
    endloop
  endfacet
  facet normal 0 0 1
    outer loop
      vertex 5.91425 0 65
      vertex 6.78008 1.74083 65
      vertex 6.50844 2.57687 65
    endloop
  endfacet
  facet normal 0 0 1
    outer loop
      vertex 6.9448 -0.877332 65
      vertex 5.91425 0 65
      vertex 6.78008 -1.74083 65
    endloop
  endfacet
  facet normal 0 0 1
    outer loop
      vertex 5.91425 0 65
      vertex 6.50844 2.57687 65
      vertex 6.13415 3.37228 65
    endloop
  endfacet
  facet normal 0 0 1
    outer loop
      vertex 6.78008 -1.74083 65
      vertex 5.91425 0 65
      vertex 6.50844 -2.57687 65
    endloop
  endfacet
  facet normal 0 0 1
    outer loop
      vertex 6.50844 -2.57687 65
      vertex 5.91425 0 65
      vertex 6.13415 -3.37228 65
    endloop
  endfacet
  facet normal 0 0 1
    outer loop
      vertex 2.95712 5.12189 65
      vertex 6.13415 3.37228 65
      vertex 5.66312 4.1145 65
    endloop
  endfacet
  facet normal 0 0 1
    outer loop
      vertex 2.95712 5.12189 65
      vertex 5.66312 4.1145 65
      vertex 5.10278 4.79183 65
    endloop
  endfacet
  facet normal -0 0 1
    outer loop
      vertex 2.95712 5.12189 65
      vertex 5.10278 4.79183 65
      vertex 4.46197 5.39359 65
    endloop
  endfacet
  facet normal 0 0 1
    outer loop
      vertex 2.95712 5.12189 65
      vertex 4.46197 5.39359 65
      vertex 3.75079 5.91029 65
    endloop
  endfacet
  facet normal 0 0 1
    outer loop
      vertex 2.95712 5.12189 65
      vertex 3.75079 5.91029 65
      vertex 2.98045 6.33379 65
    endloop
  endfacet
  facet normal 0 0 1
    outer loop
      vertex 6.13415 3.37228 65
      vertex 2.95712 5.12189 65
      vertex 5.91425 0 65
    endloop
  endfacet
  facet normal 0 0 1
    outer loop
      vertex 2.16312 6.6574 65
      vertex 2.95712 5.12189 65
      vertex 2.98045 6.33379 65
    endloop
  endfacet
  facet normal 0 0 1
    outer loop
      vertex 1.31167 6.87601 65
      vertex 2.95712 5.12189 65
      vertex 2.16312 6.6574 65
    endloop
  endfacet
  facet normal 0 0 1
    outer loop
      vertex 0.439533 6.98619 65
      vertex 2.95712 5.12189 65
      vertex 1.31167 6.87601 65
    endloop
  endfacet
  facet normal -0 0 1
    outer loop
      vertex -0.439533 6.98619 65
      vertex 2.95712 5.12189 65
      vertex 0.439533 6.98619 65
    endloop
  endfacet
  facet normal 0 0 1
    outer loop
      vertex -2.95712 5.12189 65
      vertex -0.439533 6.98619 65
      vertex -1.31167 6.87601 65
    endloop
  endfacet
  facet normal 0 0 1
    outer loop
      vertex -2.95712 5.12189 65
      vertex -1.31167 6.87601 65
      vertex -2.16312 6.6574 65
    endloop
  endfacet
  facet normal 0 0 1
    outer loop
      vertex -0.439533 6.98619 65
      vertex -2.95712 5.12189 65
      vertex 2.95712 5.12189 65
    endloop
  endfacet
  facet normal -0 0 1
    outer loop
      vertex -2.98045 6.33379 65
      vertex -2.95712 5.12189 65
      vertex -2.16312 6.6574 65
    endloop
  endfacet
  facet normal -0 0 1
    outer loop
      vertex -3.75079 5.91029 65
      vertex -2.95712 5.12189 65
      vertex -2.98045 6.33379 65
    endloop
  endfacet
  facet normal -0 0 1
    outer loop
      vertex -4.46197 5.39359 65
      vertex -2.95712 5.12189 65
      vertex -3.75079 5.91029 65
    endloop
  endfacet
  facet normal 0 0 1
    outer loop
      vertex -5.10278 4.79183 65
      vertex -2.95712 5.12189 65
      vertex -4.46197 5.39359 65
    endloop
  endfacet
  facet normal 0 0 1
    outer loop
      vertex -5.66312 4.1145 65
      vertex -2.95712 5.12189 65
      vertex -5.10278 4.79183 65
    endloop
  endfacet
  facet normal 0 0 1
    outer loop
      vertex -6.13415 3.37228 65
      vertex -2.95712 5.12189 65
      vertex -5.66312 4.1145 65
    endloop
  endfacet
  facet normal 0 0 1
    outer loop
      vertex -2.95712 5.12189 65
      vertex -6.13415 3.37228 65
      vertex -5.91425 0 65
    endloop
  endfacet
  facet normal 0 0 1
    outer loop
      vertex 2.95712 -5.12189 65
      vertex 6.13415 -3.37228 65
      vertex 5.91425 0 65
    endloop
  endfacet
  facet normal 0 0 1
    outer loop
      vertex 6.13415 -3.37228 65
      vertex 2.95712 -5.12189 65
      vertex 5.66312 -4.1145 65
    endloop
  endfacet
  facet normal 0 0 1
    outer loop
      vertex 5.66312 -4.1145 65
      vertex 2.95712 -5.12189 65
      vertex 5.10278 -4.79183 65
    endloop
  endfacet
  facet normal 0 0 1
    outer loop
      vertex 5.10278 -4.79183 65
      vertex 2.95712 -5.12189 65
      vertex 4.46197 -5.39359 65
    endloop
  endfacet
  facet normal 0 0 1
    outer loop
      vertex 4.46197 -5.39359 65
      vertex 2.95712 -5.12189 65
      vertex 3.75079 -5.91029 65
    endloop
  endfacet
  facet normal 0 0 1
    outer loop
      vertex 3.75079 -5.91029 65
      vertex 2.95712 -5.12189 65
      vertex 2.98045 -6.33379 65
    endloop
  endfacet
  facet normal 0 0 1
    outer loop
      vertex 2.95712 -5.12189 65
      vertex 2.16312 -6.6574 65
      vertex 2.98045 -6.33379 65
    endloop
  endfacet
  facet normal 0 0 1
    outer loop
      vertex 2.95712 -5.12189 65
      vertex 1.31167 -6.87601 65
      vertex 2.16312 -6.6574 65
    endloop
  endfacet
  facet normal 0 0 1
    outer loop
      vertex 2.95712 -5.12189 65
      vertex 0.439533 -6.98619 65
      vertex 1.31167 -6.87601 65
    endloop
  endfacet
  facet normal 0 0 1
    outer loop
      vertex 2.95712 -5.12189 65
      vertex -0.439533 -6.98619 65
      vertex 0.439533 -6.98619 65
    endloop
  endfacet
  facet normal -0 0 1
    outer loop
      vertex -2.95712 -5.12189 65
      vertex -0.439533 -6.98619 65
      vertex 2.95712 -5.12189 65
    endloop
  endfacet
  facet normal 0 0 1
    outer loop
      vertex -0.439533 -6.98619 65
      vertex -2.95712 -5.12189 65
      vertex -1.31167 -6.87601 65
    endloop
  endfacet
  facet normal 0 0 1
    outer loop
      vertex -1.31167 -6.87601 65
      vertex -2.95712 -5.12189 65
      vertex -2.16312 -6.6574 65
    endloop
  endfacet
  facet normal 0 0 1
    outer loop
      vertex -2.95712 -5.12189 65
      vertex -2.98045 -6.33379 65
      vertex -2.16312 -6.6574 65
    endloop
  endfacet
  facet normal 0 0 1
    outer loop
      vertex -2.95712 -5.12189 65
      vertex -3.75079 -5.91029 65
      vertex -2.98045 -6.33379 65
    endloop
  endfacet
  facet normal 0 0 1
    outer loop
      vertex -2.95712 -5.12189 65
      vertex -4.46197 -5.39359 65
      vertex -3.75079 -5.91029 65
    endloop
  endfacet
  facet normal 0 0 1
    outer loop
      vertex -2.95712 -5.12189 65
      vertex -5.10278 -4.79183 65
      vertex -4.46197 -5.39359 65
    endloop
  endfacet
  facet normal 0 0 1
    outer loop
      vertex -2.95712 -5.12189 65
      vertex -5.66312 -4.1145 65
      vertex -5.10278 -4.79183 65
    endloop
  endfacet
  facet normal -0 0 1
    outer loop
      vertex -6.13415 -3.37228 65
      vertex -2.95712 -5.12189 65
      vertex -5.91425 0 65
    endloop
  endfacet
  facet normal -0 0 1
    outer loop
      vertex -6.50844 2.57687 65
      vertex -5.91425 0 65
      vertex -6.13415 3.37228 65
    endloop
  endfacet
  facet normal 0 0 1
    outer loop
      vertex -2.95712 -5.12189 65
      vertex -6.13415 -3.37228 65
      vertex -5.66312 -4.1145 65
    endloop
  endfacet
  facet normal -0 0 1
    outer loop
      vertex -6.78008 1.74083 65
      vertex -5.91425 0 65
      vertex -6.50844 2.57687 65
    endloop
  endfacet
  facet normal 0 0 1
    outer loop
      vertex -5.91425 0 65
      vertex -6.50844 -2.57687 65
      vertex -6.13415 -3.37228 65
    endloop
  endfacet
  facet normal -0 0 1
    outer loop
      vertex -6.9448 0.877332 65
      vertex -5.91425 0 65
      vertex -6.78008 1.74083 65
    endloop
  endfacet
  facet normal 0 0 1
    outer loop
      vertex -5.91425 0 65
      vertex -6.78008 -1.74083 65
      vertex -6.50844 -2.57687 65
    endloop
  endfacet
  facet normal 0 0 1
    outer loop
      vertex -7 0 65
      vertex -5.91425 0 65
      vertex -6.9448 0.877332 65
    endloop
  endfacet
  facet normal 0 0 1
    outer loop
      vertex -5.91425 0 65
      vertex -6.9448 -0.877332 65
      vertex -6.78008 -1.74083 65
    endloop
  endfacet
  facet normal 0 0 1
    outer loop
      vertex -5.91425 0 65
      vertex -7 0 65
      vertex -6.9448 -0.877332 65
    endloop
  endfacet
  facet normal -0.998026 -0.0627975 0
    outer loop
      vertex 3.25 0 9
      vertex 3.22437 0.407332 60
      vertex 3.22437 0.407332 9
    endloop
  endfacet
  facet normal -0.998026 -0.0627975 0
    outer loop
      vertex 3.22437 0.407332 60
      vertex 3.25 0 9
      vertex 3.25 0 60
    endloop
  endfacet
  facet normal 0.998026 -0.0627975 0
    outer loop
      vertex -3.25 0 60
      vertex -3.22437 0.407332 9
      vertex -3.22437 0.407332 60
    endloop
  endfacet
  facet normal 0.998026 -0.0627975 0
    outer loop
      vertex -3.22437 0.407332 9
      vertex -3.25 0 60
      vertex -3.25 0 9
    endloop
  endfacet
  facet normal 0 -1 0
    outer loop
      vertex -0.204069 3.24359 9
      vertex 0.204069 3.24359 59.7
      vertex -0.204069 3.24359 59.7
    endloop
  endfacet
  facet normal 0 -1 -0
    outer loop
      vertex 0.204069 3.24359 59.7
      vertex -0.204069 3.24359 9
      vertex 0.204069 3.24359 9
    endloop
  endfacet
  facet normal 0 1 -0
    outer loop
      vertex 0.204069 -3.24359 9
      vertex -0.204069 -3.24359 59.7
      vertex 0.204069 -3.24359 59.7
    endloop
  endfacet
  facet normal 0 1 0
    outer loop
      vertex -0.204069 -3.24359 59.7
      vertex 0.204069 -3.24359 9
      vertex -0.204069 -3.24359 9
    endloop
  endfacet
  facet normal -0.684547 -0.728968 0
    outer loop
      vertex 2.07163 2.50417 9
      vertex 2.36915 2.22478 59.4
      vertex 2.07163 2.50417 59.4
    endloop
  endfacet
  facet normal -0.684547 -0.728968 -0
    outer loop
      vertex 2.36915 2.22478 59.4
      vertex 2.07163 2.50417 9
      vertex 2.36915 2.22478 9
    endloop
  endfacet
  facet normal 0.684547 -0.728968 0
    outer loop
      vertex -2.36915 2.22478 9
      vertex -2.07163 2.50417 59.4
      vertex -2.36915 2.22478 59.4
    endloop
  endfacet
  facet normal 0.684547 -0.728968 0
    outer loop
      vertex -2.07163 2.50417 59.4
      vertex -2.36915 2.22478 9
      vertex -2.07163 2.50417 9
    endloop
  endfacet
  facet normal 0.36811 -0.929782 0
    outer loop
      vertex -1.38378 2.94069 9
      vertex -1.0043 3.09093 59.7
      vertex -1.38378 2.94069 59.7
    endloop
  endfacet
  facet normal 0.36811 -0.929782 0
    outer loop
      vertex -1.0043 3.09093 59.7
      vertex -1.38378 2.94069 9
      vertex -1.0043 3.09093 9
    endloop
  endfacet
  facet normal -0.904862 -0.425706 0
    outer loop
      vertex 2.848 1.5657 9
      vertex 2.875 1.50831 59.4
      vertex 2.848 1.5657 59.4
    endloop
  endfacet
  facet normal -0.904836 -0.42576 -7.58522e-08
    outer loop
      vertex 3.02177 1.1964 9
      vertex 2.875 1.50831 59.4
      vertex 2.848 1.5657 9
    endloop
  endfacet
  facet normal -0.904831 -0.42577 -0
    outer loop
      vertex 3.02177 1.1964 60
      vertex 2.875 1.50831 59.4
      vertex 3.02177 1.1964 9
    endloop
  endfacet
  facet normal -0.904831 -0.42577 0
    outer loop
      vertex 2.875 1.50831 59.4
      vertex 3.02177 1.1964 60
      vertex 2.875 1.50831 60
    endloop
  endfacet
  facet normal -0.844317 -0.535845 0
    outer loop
      vertex 2.848 1.5657 9
      vertex 2.6293 1.9103 59.4
      vertex 2.6293 1.9103 9
    endloop
  endfacet
  facet normal -0.844317 -0.535845 0
    outer loop
      vertex 2.6293 1.9103 59.4
      vertex 2.848 1.5657 9
      vertex 2.848 1.5657 59.4
    endloop
  endfacet
  facet normal -0.36811 -0.929782 0
    outer loop
      vertex 1.0043 3.09093 9
      vertex 1.38378 2.94069 59.7
      vertex 1.0043 3.09093 59.7
    endloop
  endfacet
  facet normal -0.36811 -0.929782 -0
    outer loop
      vertex 1.38378 2.94069 59.7
      vertex 1.0043 3.09093 9
      vertex 1.38378 2.94069 9
    endloop
  endfacet
  facet normal -0.248693 -0.968582 0
    outer loop
      vertex 0.608989 3.19243 9
      vertex 1.0043 3.09093 59.7
      vertex 0.608989 3.19243 59.7
    endloop
  endfacet
  facet normal -0.248693 -0.968582 -0
    outer loop
      vertex 1.0043 3.09093 59.7
      vertex 0.608989 3.19243 9
      vertex 1.0043 3.09093 9
    endloop
  endfacet
  facet normal -0.58779 -0.809014 0
    outer loop
      vertex 1.74144 2.74407 9
      vertex 2.07163 2.50417 59.4
      vertex 1.74144 2.74407 59.4
    endloop
  endfacet
  facet normal -0.58779 -0.809014 -0
    outer loop
      vertex 2.07163 2.50417 59.4
      vertex 1.74144 2.74407 9
      vertex 2.07163 2.50417 9
    endloop
  endfacet
  facet normal 0.904831 -0.42577 0
    outer loop
      vertex -2.875 1.50831 60
      vertex -3.02177 1.1964 60
      vertex -2.875 1.50831 59.4
    endloop
  endfacet
  facet normal 0.904862 -0.425706 0
    outer loop
      vertex -2.875 1.50831 59.4
      vertex -2.848 1.5657 9
      vertex -2.848 1.5657 59.4
    endloop
  endfacet
  facet normal 0.904831 -0.42577 0
    outer loop
      vertex -3.02177 1.1964 9
      vertex -2.875 1.50831 59.4
      vertex -3.02177 1.1964 60
    endloop
  endfacet
  facet normal 0.904836 -0.42576 -7.58522e-08
    outer loop
      vertex -2.875 1.50831 59.4
      vertex -3.02177 1.1964 9
      vertex -2.848 1.5657 9
    endloop
  endfacet
  facet normal 0.770526 -0.637409 0
    outer loop
      vertex -2.6293 1.9103 59.4
      vertex -2.36915 2.22478 9
      vertex -2.36915 2.22478 59.4
    endloop
  endfacet
  facet normal 0.770526 -0.637409 0
    outer loop
      vertex -2.36915 2.22478 9
      vertex -2.6293 1.9103 59.4
      vertex -2.6293 1.9103 9
    endloop
  endfacet
  facet normal 0.951057 -0.309017 0
    outer loop
      vertex -3.14789 0.808242 60
      vertex -3.02177 1.1964 9
      vertex -3.02177 1.1964 60
    endloop
  endfacet
  facet normal 0.951057 -0.309017 0
    outer loop
      vertex -3.02177 1.1964 9
      vertex -3.14789 0.808242 60
      vertex -3.14789 0.808242 9
    endloop
  endfacet
  facet normal 0.481739 -0.876315 0
    outer loop
      vertex -1.74144 2.74407 59.4
      vertex -1.74144 2.74407 9
      vertex -1.50327 2.875 59.4
    endloop
  endfacet
  facet normal 0.481753 -0.876307 0
    outer loop
      vertex -1.50327 2.875 59.4
      vertex -1.38378 2.94069 59.7
      vertex -1.50327 2.875 59.7
    endloop
  endfacet
  facet normal 0.481744 -0.876312 -2.73014e-08
    outer loop
      vertex -1.38378 2.94069 9
      vertex -1.50327 2.875 59.4
      vertex -1.74144 2.74407 9
    endloop
  endfacet
  facet normal 0.481753 -0.876307 0
    outer loop
      vertex -1.50327 2.875 59.4
      vertex -1.38378 2.94069 9
      vertex -1.38378 2.94069 59.7
    endloop
  endfacet
  facet normal 0.125349 -0.992113 0
    outer loop
      vertex -0.608989 3.19243 9
      vertex -0.204069 3.24359 59.7
      vertex -0.608989 3.19243 59.7
    endloop
  endfacet
  facet normal 0.125349 -0.992113 0
    outer loop
      vertex -0.204069 3.24359 59.7
      vertex -0.608989 3.19243 9
      vertex -0.204069 3.24359 9
    endloop
  endfacet
  facet normal -0.125349 0.992113 0
    outer loop
      vertex 0.608989 -3.19243 9
      vertex 0.204069 -3.24359 59.7
      vertex 0.608989 -3.19243 59.7
    endloop
  endfacet
  facet normal -0.125349 0.992113 0
    outer loop
      vertex 0.204069 -3.24359 59.7
      vertex 0.608989 -3.19243 9
      vertex 0.204069 -3.24359 9
    endloop
  endfacet
  facet normal -0.481739 0.876315 0
    outer loop
      vertex 1.74144 -2.74407 59.4
      vertex 1.74144 -2.74407 9
      vertex 1.50327 -2.875 59.4
    endloop
  endfacet
  facet normal -0.481753 0.876307 0
    outer loop
      vertex 1.50327 -2.875 59.4
      vertex 1.38378 -2.94069 59.7
      vertex 1.50327 -2.875 59.7
    endloop
  endfacet
  facet normal -0.481744 0.876312 -2.73014e-08
    outer loop
      vertex 1.38378 -2.94069 9
      vertex 1.50327 -2.875 59.4
      vertex 1.74144 -2.74407 9
    endloop
  endfacet
  facet normal -0.481753 0.876307 0
    outer loop
      vertex 1.50327 -2.875 59.4
      vertex 1.38378 -2.94069 9
      vertex 1.38378 -2.94069 59.7
    endloop
  endfacet
  facet normal -0.951057 -0.309017 0
    outer loop
      vertex 3.14789 0.808242 9
      vertex 3.02177 1.1964 60
      vertex 3.02177 1.1964 9
    endloop
  endfacet
  facet normal -0.951057 -0.309017 0
    outer loop
      vertex 3.02177 1.1964 60
      vertex 3.14789 0.808242 9
      vertex 3.14789 0.808242 60
    endloop
  endfacet
  facet normal -0.982286 -0.187387 0
    outer loop
      vertex 3.22437 0.407332 9
      vertex 3.14789 0.808242 60
      vertex 3.14789 0.808242 9
    endloop
  endfacet
  facet normal -0.982286 -0.187387 0
    outer loop
      vertex 3.14789 0.808242 60
      vertex 3.22437 0.407332 9
      vertex 3.22437 0.407332 60
    endloop
  endfacet
  facet normal -0.770526 -0.637409 0
    outer loop
      vertex 2.6293 1.9103 9
      vertex 2.36915 2.22478 59.4
      vertex 2.36915 2.22478 9
    endloop
  endfacet
  facet normal -0.770526 -0.637409 0
    outer loop
      vertex 2.36915 2.22478 59.4
      vertex 2.6293 1.9103 9
      vertex 2.6293 1.9103 59.4
    endloop
  endfacet
  facet normal -0.125349 -0.992113 0
    outer loop
      vertex 0.204069 3.24359 9
      vertex 0.608989 3.19243 59.7
      vertex 0.204069 3.24359 59.7
    endloop
  endfacet
  facet normal -0.125349 -0.992113 -0
    outer loop
      vertex 0.608989 3.19243 59.7
      vertex 0.204069 3.24359 9
      vertex 0.608989 3.19243 9
    endloop
  endfacet
  facet normal -0.481753 -0.876307 0
    outer loop
      vertex 1.38378 2.94069 59.7
      vertex 1.50327 2.875 59.4
      vertex 1.50327 2.875 59.7
    endloop
  endfacet
  facet normal -0.481753 -0.876307 0
    outer loop
      vertex 1.38378 2.94069 9
      vertex 1.50327 2.875 59.4
      vertex 1.38378 2.94069 59.7
    endloop
  endfacet
  facet normal -0.481739 -0.876315 -4.09986e-08
    outer loop
      vertex 1.38378 2.94069 9
      vertex 1.74144 2.74407 59.4
      vertex 1.50327 2.875 59.4
    endloop
  endfacet
  facet normal -0.481744 -0.876312 -0
    outer loop
      vertex 1.74144 2.74407 59.4
      vertex 1.38378 2.94069 9
      vertex 1.74144 2.74407 9
    endloop
  endfacet
  facet normal 0.844317 -0.535845 0
    outer loop
      vertex -2.848 1.5657 59.4
      vertex -2.6293 1.9103 9
      vertex -2.6293 1.9103 59.4
    endloop
  endfacet
  facet normal 0.844317 -0.535845 0
    outer loop
      vertex -2.6293 1.9103 9
      vertex -2.848 1.5657 59.4
      vertex -2.848 1.5657 9
    endloop
  endfacet
  facet normal 0.982286 -0.187387 0
    outer loop
      vertex -3.22437 0.407332 60
      vertex -3.14789 0.808242 9
      vertex -3.14789 0.808242 60
    endloop
  endfacet
  facet normal 0.982286 -0.187387 0
    outer loop
      vertex -3.14789 0.808242 9
      vertex -3.22437 0.407332 60
      vertex -3.22437 0.407332 9
    endloop
  endfacet
  facet normal 0.58779 -0.809014 0
    outer loop
      vertex -2.07163 2.50417 9
      vertex -1.74144 2.74407 59.4
      vertex -2.07163 2.50417 59.4
    endloop
  endfacet
  facet normal 0.58779 -0.809014 0
    outer loop
      vertex -1.74144 2.74407 59.4
      vertex -2.07163 2.50417 9
      vertex -1.74144 2.74407 9
    endloop
  endfacet
  facet normal 0.248693 -0.968582 0
    outer loop
      vertex -1.0043 3.09093 9
      vertex -0.608989 3.19243 59.7
      vertex -1.0043 3.09093 59.7
    endloop
  endfacet
  facet normal 0.248693 -0.968582 0
    outer loop
      vertex -0.608989 3.19243 59.7
      vertex -1.0043 3.09093 9
      vertex -0.608989 3.19243 9
    endloop
  endfacet
  facet normal -0.998026 0.0627975 0
    outer loop
      vertex 3.22437 -0.407332 9
      vertex 3.25 0 60
      vertex 3.25 0 9
    endloop
  endfacet
  facet normal -0.998026 0.0627975 0
    outer loop
      vertex 3.25 0 60
      vertex 3.22437 -0.407332 9
      vertex 3.22437 -0.407332 60
    endloop
  endfacet
  facet normal -0.951057 0.309017 0
    outer loop
      vertex 3.02177 -1.1964 9
      vertex 3.14789 -0.808242 60
      vertex 3.14789 -0.808242 9
    endloop
  endfacet
  facet normal -0.951057 0.309017 0
    outer loop
      vertex 3.14789 -0.808242 60
      vertex 3.02177 -1.1964 9
      vertex 3.02177 -1.1964 60
    endloop
  endfacet
  facet normal -0.982286 0.187387 0
    outer loop
      vertex 3.14789 -0.808242 9
      vertex 3.22437 -0.407332 60
      vertex 3.22437 -0.407332 9
    endloop
  endfacet
  facet normal -0.982286 0.187387 0
    outer loop
      vertex 3.22437 -0.407332 60
      vertex 3.14789 -0.808242 9
      vertex 3.14789 -0.808242 60
    endloop
  endfacet
  facet normal 0.904831 0.42577 -0
    outer loop
      vertex -2.875 -1.50831 59.4
      vertex -3.02177 -1.1964 60
      vertex -2.875 -1.50831 60
    endloop
  endfacet
  facet normal 0.904831 0.42577 0
    outer loop
      vertex -3.02177 -1.1964 60
      vertex -2.875 -1.50831 59.4
      vertex -3.02177 -1.1964 9
    endloop
  endfacet
  facet normal 0.904862 0.425706 -4.88117e-07
    outer loop
      vertex -2.848 -1.5657 59.4
      vertex -3.02177 -1.1964 9
      vertex -2.875 -1.50831 59.4
    endloop
  endfacet
  facet normal 0.904836 0.42576 0
    outer loop
      vertex -3.02177 -1.1964 9
      vertex -2.848 -1.5657 59.4
      vertex -2.848 -1.5657 9
    endloop
  endfacet
  facet normal -0.58779 0.809014 0
    outer loop
      vertex 2.07163 -2.50417 9
      vertex 1.74144 -2.74407 59.4
      vertex 2.07163 -2.50417 59.4
    endloop
  endfacet
  facet normal -0.58779 0.809014 0
    outer loop
      vertex 1.74144 -2.74407 59.4
      vertex 2.07163 -2.50417 9
      vertex 1.74144 -2.74407 9
    endloop
  endfacet
  facet normal 0.951057 0.309017 0
    outer loop
      vertex -3.02177 -1.1964 60
      vertex -3.14789 -0.808242 9
      vertex -3.14789 -0.808242 60
    endloop
  endfacet
  facet normal 0.951057 0.309017 0
    outer loop
      vertex -3.14789 -0.808242 9
      vertex -3.02177 -1.1964 60
      vertex -3.02177 -1.1964 9
    endloop
  endfacet
  facet normal -0.684547 0.728968 0
    outer loop
      vertex 2.36915 -2.22478 9
      vertex 2.07163 -2.50417 59.4
      vertex 2.36915 -2.22478 59.4
    endloop
  endfacet
  facet normal -0.684547 0.728968 0
    outer loop
      vertex 2.07163 -2.50417 59.4
      vertex 2.36915 -2.22478 9
      vertex 2.07163 -2.50417 9
    endloop
  endfacet
  facet normal -0.248693 0.968582 0
    outer loop
      vertex 1.0043 -3.09093 9
      vertex 0.608989 -3.19243 59.7
      vertex 1.0043 -3.09093 59.7
    endloop
  endfacet
  facet normal -0.248693 0.968582 0
    outer loop
      vertex 0.608989 -3.19243 59.7
      vertex 1.0043 -3.09093 9
      vertex 0.608989 -3.19243 9
    endloop
  endfacet
  facet normal -0.904831 0.42577 0
    outer loop
      vertex 3.02177 -1.1964 9
      vertex 2.875 -1.50831 59.4
      vertex 3.02177 -1.1964 60
    endloop
  endfacet
  facet normal -0.904836 0.42576 -7.58522e-08
    outer loop
      vertex 2.848 -1.5657 9
      vertex 2.875 -1.50831 59.4
      vertex 3.02177 -1.1964 9
    endloop
  endfacet
  facet normal -0.904862 0.425706 0
    outer loop
      vertex 2.875 -1.50831 59.4
      vertex 2.848 -1.5657 9
      vertex 2.848 -1.5657 59.4
    endloop
  endfacet
  facet normal -0.904831 0.42577 0
    outer loop
      vertex 3.02177 -1.1964 60
      vertex 2.875 -1.50831 59.4
      vertex 2.875 -1.50831 60
    endloop
  endfacet
  facet normal -0.844317 0.535845 0
    outer loop
      vertex 2.6293 -1.9103 9
      vertex 2.848 -1.5657 59.4
      vertex 2.848 -1.5657 9
    endloop
  endfacet
  facet normal -0.844317 0.535845 0
    outer loop
      vertex 2.848 -1.5657 59.4
      vertex 2.6293 -1.9103 9
      vertex 2.6293 -1.9103 59.4
    endloop
  endfacet
  facet normal 0.125349 0.992113 -0
    outer loop
      vertex -0.204069 -3.24359 9
      vertex -0.608989 -3.19243 59.7
      vertex -0.204069 -3.24359 59.7
    endloop
  endfacet
  facet normal 0.125349 0.992113 0
    outer loop
      vertex -0.608989 -3.19243 59.7
      vertex -0.204069 -3.24359 9
      vertex -0.608989 -3.19243 9
    endloop
  endfacet
  facet normal 0.248693 0.968582 -0
    outer loop
      vertex -0.608989 -3.19243 9
      vertex -1.0043 -3.09093 59.7
      vertex -0.608989 -3.19243 59.7
    endloop
  endfacet
  facet normal 0.248693 0.968582 0
    outer loop
      vertex -1.0043 -3.09093 59.7
      vertex -0.608989 -3.19243 9
      vertex -1.0043 -3.09093 9
    endloop
  endfacet
  facet normal 0.770526 0.637409 0
    outer loop
      vertex -2.36915 -2.22478 59.4
      vertex -2.6293 -1.9103 9
      vertex -2.6293 -1.9103 59.4
    endloop
  endfacet
  facet normal 0.770526 0.637409 0
    outer loop
      vertex -2.6293 -1.9103 9
      vertex -2.36915 -2.22478 59.4
      vertex -2.36915 -2.22478 9
    endloop
  endfacet
  facet normal 0.684547 0.728968 -0
    outer loop
      vertex -2.07163 -2.50417 9
      vertex -2.36915 -2.22478 59.4
      vertex -2.07163 -2.50417 59.4
    endloop
  endfacet
  facet normal 0.684547 0.728968 0
    outer loop
      vertex -2.36915 -2.22478 59.4
      vertex -2.07163 -2.50417 9
      vertex -2.36915 -2.22478 9
    endloop
  endfacet
  facet normal 0.982286 0.187387 0
    outer loop
      vertex -3.14789 -0.808242 60
      vertex -3.22437 -0.407332 9
      vertex -3.22437 -0.407332 60
    endloop
  endfacet
  facet normal 0.982286 0.187387 0
    outer loop
      vertex -3.22437 -0.407332 9
      vertex -3.14789 -0.808242 60
      vertex -3.14789 -0.808242 9
    endloop
  endfacet
  facet normal 0.998026 0.0627975 0
    outer loop
      vertex -3.22437 -0.407332 60
      vertex -3.25 0 9
      vertex -3.25 0 60
    endloop
  endfacet
  facet normal 0.998026 0.0627975 0
    outer loop
      vertex -3.25 0 9
      vertex -3.22437 -0.407332 60
      vertex -3.22437 -0.407332 9
    endloop
  endfacet
  facet normal -0.770526 0.637409 0
    outer loop
      vertex 2.36915 -2.22478 9
      vertex 2.6293 -1.9103 59.4
      vertex 2.6293 -1.9103 9
    endloop
  endfacet
  facet normal -0.770526 0.637409 0
    outer loop
      vertex 2.6293 -1.9103 59.4
      vertex 2.36915 -2.22478 9
      vertex 2.36915 -2.22478 59.4
    endloop
  endfacet
  facet normal 0.58779 0.809014 -0
    outer loop
      vertex -1.74144 -2.74407 9
      vertex -2.07163 -2.50417 59.4
      vertex -1.74144 -2.74407 59.4
    endloop
  endfacet
  facet normal 0.58779 0.809014 0
    outer loop
      vertex -2.07163 -2.50417 59.4
      vertex -1.74144 -2.74407 9
      vertex -2.07163 -2.50417 9
    endloop
  endfacet
  facet normal 0.844317 0.535845 0
    outer loop
      vertex -2.6293 -1.9103 59.4
      vertex -2.848 -1.5657 9
      vertex -2.848 -1.5657 59.4
    endloop
  endfacet
  facet normal 0.844317 0.535845 0
    outer loop
      vertex -2.848 -1.5657 9
      vertex -2.6293 -1.9103 59.4
      vertex -2.6293 -1.9103 9
    endloop
  endfacet
  facet normal -0.36811 0.929782 0
    outer loop
      vertex 1.38378 -2.94069 9
      vertex 1.0043 -3.09093 59.7
      vertex 1.38378 -2.94069 59.7
    endloop
  endfacet
  facet normal -0.36811 0.929782 0
    outer loop
      vertex 1.0043 -3.09093 59.7
      vertex 1.38378 -2.94069 9
      vertex 1.0043 -3.09093 9
    endloop
  endfacet
  facet normal 0.36811 0.929782 -0
    outer loop
      vertex -1.0043 -3.09093 9
      vertex -1.38378 -2.94069 59.7
      vertex -1.0043 -3.09093 59.7
    endloop
  endfacet
  facet normal 0.36811 0.929782 0
    outer loop
      vertex -1.38378 -2.94069 59.7
      vertex -1.0043 -3.09093 9
      vertex -1.38378 -2.94069 9
    endloop
  endfacet
  facet normal 0.481753 0.876307 0
    outer loop
      vertex -1.38378 -2.94069 59.7
      vertex -1.50327 -2.875 59.4
      vertex -1.50327 -2.875 59.7
    endloop
  endfacet
  facet normal 0.481753 0.876307 -0
    outer loop
      vertex -1.38378 -2.94069 9
      vertex -1.50327 -2.875 59.4
      vertex -1.38378 -2.94069 59.7
    endloop
  endfacet
  facet normal 0.481739 0.876315 -4.09986e-08
    outer loop
      vertex -1.38378 -2.94069 9
      vertex -1.74144 -2.74407 59.4
      vertex -1.50327 -2.875 59.4
    endloop
  endfacet
  facet normal 0.481744 0.876312 0
    outer loop
      vertex -1.74144 -2.74407 59.4
      vertex -1.38378 -2.94069 9
      vertex -1.74144 -2.74407 9
    endloop
  endfacet
  facet normal 0.866025 -0.500001 0
    outer loop
      vertex -5.91425 0 65
      vertex -2.95712 5.12189 60
      vertex -2.95712 5.12189 65
    endloop
  endfacet
  facet normal 0.866025 -0.500001 0
    outer loop
      vertex -2.95712 5.12189 60
      vertex -5.91425 0 65
      vertex -5.91425 0 60
    endloop
  endfacet
  facet normal 0 -1 0
    outer loop
      vertex -2.95712 5.12189 60
      vertex 2.95712 5.12189 65
      vertex -2.95712 5.12189 65
    endloop
  endfacet
  facet normal 0 -1 -0
    outer loop
      vertex 2.95712 5.12189 65
      vertex -2.95712 5.12189 60
      vertex 2.95712 5.12189 60
    endloop
  endfacet
  facet normal -0.866025 0.500001 0
    outer loop
      vertex 2.95712 -5.12189 60
      vertex 5.91425 0 65
      vertex 5.91425 0 60
    endloop
  endfacet
  facet normal -0.866025 0.500001 0
    outer loop
      vertex 5.91425 0 65
      vertex 2.95712 -5.12189 60
      vertex 2.95712 -5.12189 65
    endloop
  endfacet
  facet normal -0.866025 -0.500001 0
    outer loop
      vertex 5.91425 0 60
      vertex 2.95712 5.12189 65
      vertex 2.95712 5.12189 60
    endloop
  endfacet
  facet normal -0.866025 -0.500001 0
    outer loop
      vertex 2.95712 5.12189 65
      vertex 5.91425 0 60
      vertex 5.91425 0 65
    endloop
  endfacet
  facet normal 0 1 -0
    outer loop
      vertex 2.95712 -5.12189 60
      vertex -2.95712 -5.12189 65
      vertex 2.95712 -5.12189 65
    endloop
  endfacet
  facet normal 0 1 0
    outer loop
      vertex -2.95712 -5.12189 65
      vertex 2.95712 -5.12189 60
      vertex -2.95712 -5.12189 60
    endloop
  endfacet
  facet normal 0.866025 0.500001 0
    outer loop
      vertex -2.95712 -5.12189 65
      vertex -5.91425 0 60
      vertex -5.91425 0 65
    endloop
  endfacet
  facet normal 0.866025 0.500001 0
    outer loop
      vertex -5.91425 0 60
      vertex -2.95712 -5.12189 65
      vertex -2.95712 -5.12189 60
    endloop
  endfacet
  facet normal 0.998027 0.0627939 0
    outer loop
      vertex 7 0 65
      vertex 6.9448 0.877332 9
      vertex 6.9448 0.877332 65
    endloop
  endfacet
  facet normal 0.998027 0.0627939 0
    outer loop
      vertex 6.9448 0.877332 9
      vertex 7 0 65
      vertex 7 0 9
    endloop
  endfacet
  facet normal -0.998027 0.0627939 0
    outer loop
      vertex -7 0 9
      vertex -6.9448 0.877332 65
      vertex -6.9448 0.877332 9
    endloop
  endfacet
  facet normal -0.998027 0.0627939 0
    outer loop
      vertex -6.9448 0.877332 65
      vertex -7 0 9
      vertex -7 0 65
    endloop
  endfacet
  facet normal 0 1 -0
    outer loop
      vertex 0.439533 6.98619 9
      vertex -0.439533 6.98619 65
      vertex 0.439533 6.98619 65
    endloop
  endfacet
  facet normal 0 1 0
    outer loop
      vertex -0.439533 6.98619 65
      vertex 0.439533 6.98619 9
      vertex -0.439533 6.98619 9
    endloop
  endfacet
  facet normal 0 -1 0
    outer loop
      vertex -0.439533 -6.98619 9
      vertex 0.439533 -6.98619 65
      vertex -0.439533 -6.98619 65
    endloop
  endfacet
  facet normal 0 -1 -0
    outer loop
      vertex 0.439533 -6.98619 65
      vertex -0.439533 -6.98619 9
      vertex 0.439533 -6.98619 9
    endloop
  endfacet
  facet normal 0.684547 0.728969 -0
    outer loop
      vertex 5.10278 4.79183 9
      vertex 4.46197 5.39359 65
      vertex 5.10278 4.79183 65
    endloop
  endfacet
  facet normal 0.684547 0.728969 0
    outer loop
      vertex 4.46197 5.39359 65
      vertex 5.10278 4.79183 9
      vertex 4.46197 5.39359 9
    endloop
  endfacet
  facet normal -0.684547 0.728969 0
    outer loop
      vertex -4.46197 5.39359 9
      vertex -5.10278 4.79183 65
      vertex -4.46197 5.39359 65
    endloop
  endfacet
  facet normal -0.684547 0.728969 0
    outer loop
      vertex -5.10278 4.79183 65
      vertex -4.46197 5.39359 9
      vertex -5.10278 4.79183 9
    endloop
  endfacet
  facet normal -0.368131 0.929774 0
    outer loop
      vertex -2.16312 6.6574 9
      vertex -2.98045 6.33379 65
      vertex -2.16312 6.6574 65
    endloop
  endfacet
  facet normal -0.368131 0.929774 0
    outer loop
      vertex -2.98045 6.33379 65
      vertex -2.16312 6.6574 9
      vertex -2.98045 6.33379 9
    endloop
  endfacet
  facet normal 0.904828 0.425778 0
    outer loop
      vertex 6.50844 2.57687 65
      vertex 6.13415 3.37228 9
      vertex 6.13415 3.37228 65
    endloop
  endfacet
  facet normal 0.904828 0.425778 0
    outer loop
      vertex 6.13415 3.37228 9
      vertex 6.50844 2.57687 65
      vertex 6.50844 2.57687 9
    endloop
  endfacet
  facet normal 0.982287 0.18738 0
    outer loop
      vertex 6.9448 0.877332 65
      vertex 6.78008 1.74083 9
      vertex 6.78008 1.74083 65
    endloop
  endfacet
  facet normal 0.982287 0.18738 0
    outer loop
      vertex 6.78008 1.74083 9
      vertex 6.9448 0.877332 65
      vertex 6.9448 0.877332 9
    endloop
  endfacet
  facet normal 0.368131 0.929774 -0
    outer loop
      vertex 2.98045 6.33379 9
      vertex 2.16312 6.6574 65
      vertex 2.98045 6.33379 65
    endloop
  endfacet
  facet normal 0.368131 0.929774 0
    outer loop
      vertex 2.16312 6.6574 65
      vertex 2.98045 6.33379 9
      vertex 2.16312 6.6574 9
    endloop
  endfacet
  facet normal 0.481755 0.876306 -0
    outer loop
      vertex 3.75079 5.91029 9
      vertex 2.98045 6.33379 65
      vertex 3.75079 5.91029 65
    endloop
  endfacet
  facet normal 0.481755 0.876306 0
    outer loop
      vertex 2.98045 6.33379 65
      vertex 3.75079 5.91029 9
      vertex 2.98045 6.33379 9
    endloop
  endfacet
  facet normal -0.904828 0.425778 0
    outer loop
      vertex -6.50844 2.57687 9
      vertex -6.13415 3.37228 65
      vertex -6.13415 3.37228 9
    endloop
  endfacet
  facet normal -0.904828 0.425778 0
    outer loop
      vertex -6.13415 3.37228 65
      vertex -6.50844 2.57687 9
      vertex -6.50844 2.57687 65
    endloop
  endfacet
  facet normal -0.951058 0.309011 0
    outer loop
      vertex -6.78008 1.74083 9
      vertex -6.50844 2.57687 65
      vertex -6.50844 2.57687 9
    endloop
  endfacet
  facet normal -0.951058 0.309011 0
    outer loop
      vertex -6.50844 2.57687 65
      vertex -6.78008 1.74083 9
      vertex -6.78008 1.74083 65
    endloop
  endfacet
  facet normal -0.248684 0.968585 0
    outer loop
      vertex -1.31167 6.87601 9
      vertex -2.16312 6.6574 65
      vertex -1.31167 6.87601 65
    endloop
  endfacet
  facet normal -0.248684 0.968585 0
    outer loop
      vertex -2.16312 6.6574 65
      vertex -1.31167 6.87601 9
      vertex -2.16312 6.6574 9
    endloop
  endfacet
  facet normal 0.125337 -0.992114 0
    outer loop
      vertex 0.439533 -6.98619 9
      vertex 1.31167 -6.87601 65
      vertex 0.439533 -6.98619 65
    endloop
  endfacet
  facet normal 0.125337 -0.992114 0
    outer loop
      vertex 1.31167 -6.87601 65
      vertex 0.439533 -6.98619 9
      vertex 1.31167 -6.87601 9
    endloop
  endfacet
  facet normal 0.951058 0.309011 0
    outer loop
      vertex 6.78008 1.74083 65
      vertex 6.50844 2.57687 9
      vertex 6.50844 2.57687 65
    endloop
  endfacet
  facet normal 0.951058 0.309011 0
    outer loop
      vertex 6.50844 2.57687 9
      vertex 6.78008 1.74083 65
      vertex 6.78008 1.74083 9
    endloop
  endfacet
  facet normal 0.770511 0.637427 0
    outer loop
      vertex 5.66312 4.1145 65
      vertex 5.10278 4.79183 9
      vertex 5.10278 4.79183 65
    endloop
  endfacet
  facet normal 0.770511 0.637427 0
    outer loop
      vertex 5.10278 4.79183 9
      vertex 5.66312 4.1145 65
      vertex 5.66312 4.1145 9
    endloop
  endfacet
  facet normal 0.844326 0.535829 0
    outer loop
      vertex 6.13415 3.37228 65
      vertex 5.66312 4.1145 9
      vertex 5.66312 4.1145 65
    endloop
  endfacet
  facet normal 0.844326 0.535829 0
    outer loop
      vertex 5.66312 4.1145 9
      vertex 6.13415 3.37228 65
      vertex 6.13415 3.37228 9
    endloop
  endfacet
  facet normal 0.248684 0.968585 -0
    outer loop
      vertex 2.16312 6.6574 9
      vertex 1.31167 6.87601 65
      vertex 2.16312 6.6574 65
    endloop
  endfacet
  facet normal 0.248684 0.968585 0
    outer loop
      vertex 1.31167 6.87601 65
      vertex 2.16312 6.6574 9
      vertex 1.31167 6.87601 9
    endloop
  endfacet
  facet normal 0.125337 0.992114 -0
    outer loop
      vertex 1.31167 6.87601 9
      vertex 0.439533 6.98619 65
      vertex 1.31167 6.87601 65
    endloop
  endfacet
  facet normal 0.125337 0.992114 0
    outer loop
      vertex 0.439533 6.98619 65
      vertex 1.31167 6.87601 9
      vertex 0.439533 6.98619 9
    endloop
  endfacet
  facet normal 0.587783 0.809018 -0
    outer loop
      vertex 4.46197 5.39359 9
      vertex 3.75079 5.91029 65
      vertex 4.46197 5.39359 65
    endloop
  endfacet
  facet normal 0.587783 0.809018 0
    outer loop
      vertex 3.75079 5.91029 65
      vertex 4.46197 5.39359 9
      vertex 3.75079 5.91029 9
    endloop
  endfacet
  facet normal -0.844326 0.535829 0
    outer loop
      vertex -6.13415 3.37228 9
      vertex -5.66312 4.1145 65
      vertex -5.66312 4.1145 9
    endloop
  endfacet
  facet normal -0.844326 0.535829 0
    outer loop
      vertex -5.66312 4.1145 65
      vertex -6.13415 3.37228 9
      vertex -6.13415 3.37228 65
    endloop
  endfacet
  facet normal -0.770511 0.637427 0
    outer loop
      vertex -5.66312 4.1145 9
      vertex -5.10278 4.79183 65
      vertex -5.10278 4.79183 9
    endloop
  endfacet
  facet normal -0.770511 0.637427 0
    outer loop
      vertex -5.10278 4.79183 65
      vertex -5.66312 4.1145 9
      vertex -5.66312 4.1145 65
    endloop
  endfacet
  facet normal -0.982287 0.18738 0
    outer loop
      vertex -6.9448 0.877332 9
      vertex -6.78008 1.74083 65
      vertex -6.78008 1.74083 9
    endloop
  endfacet
  facet normal -0.982287 0.18738 0
    outer loop
      vertex -6.78008 1.74083 65
      vertex -6.9448 0.877332 9
      vertex -6.9448 0.877332 65
    endloop
  endfacet
  facet normal -0.481755 0.876306 0
    outer loop
      vertex -2.98045 6.33379 9
      vertex -3.75079 5.91029 65
      vertex -2.98045 6.33379 65
    endloop
  endfacet
  facet normal -0.481755 0.876306 0
    outer loop
      vertex -3.75079 5.91029 65
      vertex -2.98045 6.33379 9
      vertex -3.75079 5.91029 9
    endloop
  endfacet
  facet normal -0.587783 0.809018 0
    outer loop
      vertex -3.75079 5.91029 9
      vertex -4.46197 5.39359 65
      vertex -3.75079 5.91029 65
    endloop
  endfacet
  facet normal -0.587783 0.809018 0
    outer loop
      vertex -4.46197 5.39359 65
      vertex -3.75079 5.91029 9
      vertex -4.46197 5.39359 9
    endloop
  endfacet
  facet normal -0.125337 0.992114 0
    outer loop
      vertex -0.439533 6.98619 9
      vertex -1.31167 6.87601 65
      vertex -0.439533 6.98619 65
    endloop
  endfacet
  facet normal -0.125337 0.992114 0
    outer loop
      vertex -1.31167 6.87601 65
      vertex -0.439533 6.98619 9
      vertex -1.31167 6.87601 9
    endloop
  endfacet
  facet normal 0.998027 -0.0627939 0
    outer loop
      vertex 6.9448 -0.877332 65
      vertex 7 0 9
      vertex 7 0 65
    endloop
  endfacet
  facet normal 0.998027 -0.0627939 0
    outer loop
      vertex 7 0 9
      vertex 6.9448 -0.877332 65
      vertex 6.9448 -0.877332 9
    endloop
  endfacet
  facet normal 0.904828 -0.425778 0
    outer loop
      vertex 6.13415 -3.37228 65
      vertex 6.50844 -2.57687 9
      vertex 6.50844 -2.57687 65
    endloop
  endfacet
  facet normal 0.904828 -0.425778 0
    outer loop
      vertex 6.50844 -2.57687 9
      vertex 6.13415 -3.37228 65
      vertex 6.13415 -3.37228 9
    endloop
  endfacet
  facet normal -0.684547 -0.728969 0
    outer loop
      vertex -5.10278 -4.79183 9
      vertex -4.46197 -5.39359 65
      vertex -5.10278 -4.79183 65
    endloop
  endfacet
  facet normal -0.684547 -0.728969 -0
    outer loop
      vertex -4.46197 -5.39359 65
      vertex -5.10278 -4.79183 9
      vertex -4.46197 -5.39359 9
    endloop
  endfacet
  facet normal -0.904828 -0.425778 0
    outer loop
      vertex -6.13415 -3.37228 9
      vertex -6.50844 -2.57687 65
      vertex -6.50844 -2.57687 9
    endloop
  endfacet
  facet normal -0.904828 -0.425778 0
    outer loop
      vertex -6.50844 -2.57687 65
      vertex -6.13415 -3.37228 9
      vertex -6.13415 -3.37228 65
    endloop
  endfacet
  facet normal -0.844326 -0.535829 0
    outer loop
      vertex -5.66312 -4.1145 9
      vertex -6.13415 -3.37228 65
      vertex -6.13415 -3.37228 9
    endloop
  endfacet
  facet normal -0.844326 -0.535829 0
    outer loop
      vertex -6.13415 -3.37228 65
      vertex -5.66312 -4.1145 9
      vertex -5.66312 -4.1145 65
    endloop
  endfacet
  facet normal 0 0 -1
    outer loop
      vertex 3.25 0 9
      vertex 7 0 9
      vertex 6.9448 -0.877332 9
    endloop
  endfacet
  facet normal 0 0 -1
    outer loop
      vertex 3.22437 -0.407332 9
      vertex 6.9448 -0.877332 9
      vertex 6.78008 -1.74083 9
    endloop
  endfacet
  facet normal 0 0 -1
    outer loop
      vertex 7 0 9
      vertex 3.25 0 9
      vertex 6.9448 0.877332 9
    endloop
  endfacet
  facet normal 0 0 -1
    outer loop
      vertex 3.14789 -0.808242 9
      vertex 6.78008 -1.74083 9
      vertex 6.50844 -2.57687 9
    endloop
  endfacet
  facet normal 0 0 -1
    outer loop
      vertex 3.22437 0.407332 9
      vertex 6.9448 0.877332 9
      vertex 3.25 0 9
    endloop
  endfacet
  facet normal 0 0 -1
    outer loop
      vertex 3.02177 -1.1964 9
      vertex 6.50844 -2.57687 9
      vertex 6.13415 -3.37228 9
    endloop
  endfacet
  facet normal -0 0 -1
    outer loop
      vertex 6.9448 0.877332 9
      vertex 3.22437 0.407332 9
      vertex 6.78008 1.74083 9
    endloop
  endfacet
  facet normal 0 0 -1
    outer loop
      vertex 2.848 -1.5657 9
      vertex 6.13415 -3.37228 9
      vertex 5.66312 -4.1145 9
    endloop
  endfacet
  facet normal 0 0 -1
    outer loop
      vertex 3.14789 0.808242 9
      vertex 6.78008 1.74083 9
      vertex 3.22437 0.407332 9
    endloop
  endfacet
  facet normal 0 0 -1
    outer loop
      vertex 2.6293 -1.9103 9
      vertex 5.66312 -4.1145 9
      vertex 5.10278 -4.79183 9
    endloop
  endfacet
  facet normal -0 0 -1
    outer loop
      vertex 6.78008 1.74083 9
      vertex 3.14789 0.808242 9
      vertex 6.50844 2.57687 9
    endloop
  endfacet
  facet normal 0 0 -1
    outer loop
      vertex 2.36915 -2.22478 9
      vertex 5.10278 -4.79183 9
      vertex 4.46197 -5.39359 9
    endloop
  endfacet
  facet normal 0 0 -1
    outer loop
      vertex 3.02177 1.1964 9
      vertex 6.50844 2.57687 9
      vertex 3.14789 0.808242 9
    endloop
  endfacet
  facet normal 0 0 -1
    outer loop
      vertex 2.07163 -2.50417 9
      vertex 4.46197 -5.39359 9
      vertex 3.75079 -5.91029 9
    endloop
  endfacet
  facet normal -0 0 -1
    outer loop
      vertex 6.50844 2.57687 9
      vertex 3.02177 1.1964 9
      vertex 6.13415 3.37228 9
    endloop
  endfacet
  facet normal 0 0 -1
    outer loop
      vertex 2.848 1.5657 9
      vertex 6.13415 3.37228 9
      vertex 3.02177 1.1964 9
    endloop
  endfacet
  facet normal 0 0 -1
    outer loop
      vertex 6.9448 -0.877332 9
      vertex 3.22437 -0.407332 9
      vertex 3.25 0 9
    endloop
  endfacet
  facet normal 0 0 -1
    outer loop
      vertex 6.78008 -1.74083 9
      vertex 3.14789 -0.808242 9
      vertex 3.22437 -0.407332 9
    endloop
  endfacet
  facet normal 0 0 -1
    outer loop
      vertex 6.50844 -2.57687 9
      vertex 3.02177 -1.1964 9
      vertex 3.14789 -0.808242 9
    endloop
  endfacet
  facet normal 0 0 -1
    outer loop
      vertex 1.74144 -2.74407 9
      vertex 3.75079 -5.91029 9
      vertex 2.98045 -6.33379 9
    endloop
  endfacet
  facet normal 0 0 -1
    outer loop
      vertex 6.13415 -3.37228 9
      vertex 2.848 -1.5657 9
      vertex 3.02177 -1.1964 9
    endloop
  endfacet
  facet normal 0 0 -1
    outer loop
      vertex 5.66312 -4.1145 9
      vertex 2.6293 -1.9103 9
      vertex 2.848 -1.5657 9
    endloop
  endfacet
  facet normal 0 0 -1
    outer loop
      vertex 5.10278 -4.79183 9
      vertex 2.36915 -2.22478 9
      vertex 2.6293 -1.9103 9
    endloop
  endfacet
  facet normal 0 0 -1
    outer loop
      vertex 1.38378 -2.94069 9
      vertex 2.98045 -6.33379 9
      vertex 2.16312 -6.6574 9
    endloop
  endfacet
  facet normal 0 0 -1
    outer loop
      vertex 4.46197 -5.39359 9
      vertex 2.07163 -2.50417 9
      vertex 2.36915 -2.22478 9
    endloop
  endfacet
  facet normal 0 0 -1
    outer loop
      vertex 3.75079 -5.91029 9
      vertex 1.74144 -2.74407 9
      vertex 2.07163 -2.50417 9
    endloop
  endfacet
  facet normal 0 0 -1
    outer loop
      vertex 2.98045 -6.33379 9
      vertex 1.38378 -2.94069 9
      vertex 1.74144 -2.74407 9
    endloop
  endfacet
  facet normal 0 0 -1
    outer loop
      vertex 1.0043 -3.09093 9
      vertex 2.16312 -6.6574 9
      vertex 1.31167 -6.87601 9
    endloop
  endfacet
  facet normal 0 0 -1
    outer loop
      vertex 2.16312 -6.6574 9
      vertex 1.0043 -3.09093 9
      vertex 1.38378 -2.94069 9
    endloop
  endfacet
  facet normal 0 0 -1
    outer loop
      vertex 1.31167 -6.87601 9
      vertex 0.608989 -3.19243 9
      vertex 1.0043 -3.09093 9
    endloop
  endfacet
  facet normal 0 0 -1
    outer loop
      vertex 0.439533 -6.98619 9
      vertex 0.608989 -3.19243 9
      vertex 1.31167 -6.87601 9
    endloop
  endfacet
  facet normal 0 0 -1
    outer loop
      vertex 0.439533 -6.98619 9
      vertex 0.204069 -3.24359 9
      vertex 0.608989 -3.19243 9
    endloop
  endfacet
  facet normal 0 0 -1
    outer loop
      vertex 0.439533 -6.98619 9
      vertex -0.204069 -3.24359 9
      vertex 0.204069 -3.24359 9
    endloop
  endfacet
  facet normal 0 0 -1
    outer loop
      vertex -0.439533 -6.98619 9
      vertex -0.204069 -3.24359 9
      vertex 0.439533 -6.98619 9
    endloop
  endfacet
  facet normal 0 0 -1
    outer loop
      vertex -0.439533 -6.98619 9
      vertex -0.608989 -3.19243 9
      vertex -0.204069 -3.24359 9
    endloop
  endfacet
  facet normal 0 0 -1
    outer loop
      vertex -1.31167 -6.87601 9
      vertex -0.608989 -3.19243 9
      vertex -0.439533 -6.98619 9
    endloop
  endfacet
  facet normal -0 0 -1
    outer loop
      vertex -0.608989 -3.19243 9
      vertex -1.31167 -6.87601 9
      vertex -1.0043 -3.09093 9
    endloop
  endfacet
  facet normal 0 0 -1
    outer loop
      vertex -2.16312 -6.6574 9
      vertex -1.0043 -3.09093 9
      vertex -1.31167 -6.87601 9
    endloop
  endfacet
  facet normal -0 0 -1
    outer loop
      vertex -1.0043 -3.09093 9
      vertex -2.16312 -6.6574 9
      vertex -1.38378 -2.94069 9
    endloop
  endfacet
  facet normal 0 0 -1
    outer loop
      vertex -2.98045 -6.33379 9
      vertex -1.38378 -2.94069 9
      vertex -2.16312 -6.6574 9
    endloop
  endfacet
  facet normal -0 0 -1
    outer loop
      vertex -1.38378 -2.94069 9
      vertex -2.98045 -6.33379 9
      vertex -1.74144 -2.74407 9
    endloop
  endfacet
  facet normal 0 0 -1
    outer loop
      vertex -3.75079 -5.91029 9
      vertex -1.74144 -2.74407 9
      vertex -2.98045 -6.33379 9
    endloop
  endfacet
  facet normal -0 0 -1
    outer loop
      vertex -1.74144 -2.74407 9
      vertex -3.75079 -5.91029 9
      vertex -2.07163 -2.50417 9
    endloop
  endfacet
  facet normal 0 0 -1
    outer loop
      vertex -4.46197 -5.39359 9
      vertex -2.07163 -2.50417 9
      vertex -3.75079 -5.91029 9
    endloop
  endfacet
  facet normal -0 0 -1
    outer loop
      vertex -2.07163 -2.50417 9
      vertex -4.46197 -5.39359 9
      vertex -2.36915 -2.22478 9
    endloop
  endfacet
  facet normal 0 0 -1
    outer loop
      vertex -5.10278 -4.79183 9
      vertex -2.36915 -2.22478 9
      vertex -4.46197 -5.39359 9
    endloop
  endfacet
  facet normal -0 0 -1
    outer loop
      vertex -2.36915 -2.22478 9
      vertex -5.10278 -4.79183 9
      vertex -2.6293 -1.9103 9
    endloop
  endfacet
  facet normal 0 0 -1
    outer loop
      vertex -5.66312 -4.1145 9
      vertex -2.6293 -1.9103 9
      vertex -5.10278 -4.79183 9
    endloop
  endfacet
  facet normal -0 0 -1
    outer loop
      vertex -2.6293 -1.9103 9
      vertex -5.66312 -4.1145 9
      vertex -2.848 -1.5657 9
    endloop
  endfacet
  facet normal 0 0 -1
    outer loop
      vertex -6.13415 -3.37228 9
      vertex -2.848 -1.5657 9
      vertex -5.66312 -4.1145 9
    endloop
  endfacet
  facet normal -0 0 -1
    outer loop
      vertex 6.13415 3.37228 9
      vertex 2.848 1.5657 9
      vertex 5.66312 4.1145 9
    endloop
  endfacet
  facet normal 0 0 -1
    outer loop
      vertex 2.6293 1.9103 9
      vertex 5.66312 4.1145 9
      vertex 2.848 1.5657 9
    endloop
  endfacet
  facet normal -0 0 -1
    outer loop
      vertex 5.66312 4.1145 9
      vertex 2.6293 1.9103 9
      vertex 5.10278 4.79183 9
    endloop
  endfacet
  facet normal 0 0 -1
    outer loop
      vertex 2.36915 2.22478 9
      vertex 5.10278 4.79183 9
      vertex 2.6293 1.9103 9
    endloop
  endfacet
  facet normal -0 0 -1
    outer loop
      vertex 5.10278 4.79183 9
      vertex 2.36915 2.22478 9
      vertex 4.46197 5.39359 9
    endloop
  endfacet
  facet normal 0 0 -1
    outer loop
      vertex 2.07163 2.50417 9
      vertex 4.46197 5.39359 9
      vertex 2.36915 2.22478 9
    endloop
  endfacet
  facet normal -0 0 -1
    outer loop
      vertex 4.46197 5.39359 9
      vertex 2.07163 2.50417 9
      vertex 3.75079 5.91029 9
    endloop
  endfacet
  facet normal 0 0 -1
    outer loop
      vertex 1.74144 2.74407 9
      vertex 3.75079 5.91029 9
      vertex 2.07163 2.50417 9
    endloop
  endfacet
  facet normal -0 0 -1
    outer loop
      vertex 3.75079 5.91029 9
      vertex 1.74144 2.74407 9
      vertex 2.98045 6.33379 9
    endloop
  endfacet
  facet normal 0 0 -1
    outer loop
      vertex 1.38378 2.94069 9
      vertex 2.98045 6.33379 9
      vertex 1.74144 2.74407 9
    endloop
  endfacet
  facet normal -0 0 -1
    outer loop
      vertex 2.98045 6.33379 9
      vertex 1.38378 2.94069 9
      vertex 2.16312 6.6574 9
    endloop
  endfacet
  facet normal 0 0 -1
    outer loop
      vertex 1.0043 3.09093 9
      vertex 2.16312 6.6574 9
      vertex 1.38378 2.94069 9
    endloop
  endfacet
  facet normal -0 0 -1
    outer loop
      vertex 2.16312 6.6574 9
      vertex 1.0043 3.09093 9
      vertex 1.31167 6.87601 9
    endloop
  endfacet
  facet normal 0 0 -1
    outer loop
      vertex 0.608989 3.19243 9
      vertex 1.31167 6.87601 9
      vertex 1.0043 3.09093 9
    endloop
  endfacet
  facet normal 0 0 -1
    outer loop
      vertex 0.608989 3.19243 9
      vertex 0.439533 6.98619 9
      vertex 1.31167 6.87601 9
    endloop
  endfacet
  facet normal 0 0 -1
    outer loop
      vertex 0.204069 3.24359 9
      vertex 0.439533 6.98619 9
      vertex 0.608989 3.19243 9
    endloop
  endfacet
  facet normal 0 0 -1
    outer loop
      vertex -0.204069 3.24359 9
      vertex 0.439533 6.98619 9
      vertex 0.204069 3.24359 9
    endloop
  endfacet
  facet normal 0 0 -1
    outer loop
      vertex -0.204069 3.24359 9
      vertex -0.439533 6.98619 9
      vertex 0.439533 6.98619 9
    endloop
  endfacet
  facet normal 0 0 -1
    outer loop
      vertex -0.608989 3.19243 9
      vertex -0.439533 6.98619 9
      vertex -0.204069 3.24359 9
    endloop
  endfacet
  facet normal 0 0 -1
    outer loop
      vertex -1.31167 6.87601 9
      vertex -0.608989 3.19243 9
      vertex -1.0043 3.09093 9
    endloop
  endfacet
  facet normal 0 0 -1
    outer loop
      vertex -0.608989 3.19243 9
      vertex -1.31167 6.87601 9
      vertex -0.439533 6.98619 9
    endloop
  endfacet
  facet normal 0 0 -1
    outer loop
      vertex -2.16312 6.6574 9
      vertex -1.0043 3.09093 9
      vertex -1.38378 2.94069 9
    endloop
  endfacet
  facet normal 0 0 -1
    outer loop
      vertex -2.98045 6.33379 9
      vertex -1.38378 2.94069 9
      vertex -1.74144 2.74407 9
    endloop
  endfacet
  facet normal 0 0 -1
    outer loop
      vertex -3.75079 5.91029 9
      vertex -1.74144 2.74407 9
      vertex -2.07163 2.50417 9
    endloop
  endfacet
  facet normal 0 0 -1
    outer loop
      vertex -1.0043 3.09093 9
      vertex -2.16312 6.6574 9
      vertex -1.31167 6.87601 9
    endloop
  endfacet
  facet normal 0 0 -1
    outer loop
      vertex -4.46197 5.39359 9
      vertex -2.07163 2.50417 9
      vertex -2.36915 2.22478 9
    endloop
  endfacet
  facet normal 0 0 -1
    outer loop
      vertex -5.10278 4.79183 9
      vertex -2.36915 2.22478 9
      vertex -2.6293 1.9103 9
    endloop
  endfacet
  facet normal 0 0 -1
    outer loop
      vertex -5.66312 4.1145 9
      vertex -2.6293 1.9103 9
      vertex -2.848 1.5657 9
    endloop
  endfacet
  facet normal 0 0 -1
    outer loop
      vertex -1.38378 2.94069 9
      vertex -2.98045 6.33379 9
      vertex -2.16312 6.6574 9
    endloop
  endfacet
  facet normal 0 0 -1
    outer loop
      vertex -6.13415 3.37228 9
      vertex -2.848 1.5657 9
      vertex -3.02177 1.1964 9
    endloop
  endfacet
  facet normal 0 0 -1
    outer loop
      vertex -6.50844 2.57687 9
      vertex -3.02177 1.1964 9
      vertex -3.14789 0.808242 9
    endloop
  endfacet
  facet normal 0 0 -1
    outer loop
      vertex -6.78008 1.74083 9
      vertex -3.14789 0.808242 9
      vertex -3.22437 0.407332 9
    endloop
  endfacet
  facet normal 0 0 -1
    outer loop
      vertex -6.9448 0.877332 9
      vertex -3.22437 0.407332 9
      vertex -3.25 0 9
    endloop
  endfacet
  facet normal -0 0 -1
    outer loop
      vertex -2.848 -1.5657 9
      vertex -6.13415 -3.37228 9
      vertex -3.02177 -1.1964 9
    endloop
  endfacet
  facet normal 0 0 -1
    outer loop
      vertex -1.74144 2.74407 9
      vertex -3.75079 5.91029 9
      vertex -2.98045 6.33379 9
    endloop
  endfacet
  facet normal 0 0 -1
    outer loop
      vertex -6.50844 -2.57687 9
      vertex -3.02177 -1.1964 9
      vertex -6.13415 -3.37228 9
    endloop
  endfacet
  facet normal 0 0 -1
    outer loop
      vertex -2.07163 2.50417 9
      vertex -4.46197 5.39359 9
      vertex -3.75079 5.91029 9
    endloop
  endfacet
  facet normal -0 0 -1
    outer loop
      vertex -3.02177 -1.1964 9
      vertex -6.50844 -2.57687 9
      vertex -3.14789 -0.808242 9
    endloop
  endfacet
  facet normal 0 0 -1
    outer loop
      vertex -2.36915 2.22478 9
      vertex -5.10278 4.79183 9
      vertex -4.46197 5.39359 9
    endloop
  endfacet
  facet normal 0 0 -1
    outer loop
      vertex -6.78008 -1.74083 9
      vertex -3.14789 -0.808242 9
      vertex -6.50844 -2.57687 9
    endloop
  endfacet
  facet normal 0 0 -1
    outer loop
      vertex -2.6293 1.9103 9
      vertex -5.66312 4.1145 9
      vertex -5.10278 4.79183 9
    endloop
  endfacet
  facet normal -0 0 -1
    outer loop
      vertex -3.14789 -0.808242 9
      vertex -6.78008 -1.74083 9
      vertex -3.22437 -0.407332 9
    endloop
  endfacet
  facet normal 0 0 -1
    outer loop
      vertex -2.848 1.5657 9
      vertex -6.13415 3.37228 9
      vertex -5.66312 4.1145 9
    endloop
  endfacet
  facet normal 0 0 -1
    outer loop
      vertex -6.9448 -0.877332 9
      vertex -3.22437 -0.407332 9
      vertex -6.78008 -1.74083 9
    endloop
  endfacet
  facet normal 0 0 -1
    outer loop
      vertex -3.02177 1.1964 9
      vertex -6.50844 2.57687 9
      vertex -6.13415 3.37228 9
    endloop
  endfacet
  facet normal -0 0 -1
    outer loop
      vertex -3.22437 -0.407332 9
      vertex -6.9448 -0.877332 9
      vertex -3.25 0 9
    endloop
  endfacet
  facet normal 0 0 -1
    outer loop
      vertex -3.14789 0.808242 9
      vertex -6.78008 1.74083 9
      vertex -6.50844 2.57687 9
    endloop
  endfacet
  facet normal 0 0 -1
    outer loop
      vertex -7 0 9
      vertex -3.25 0 9
      vertex -6.9448 -0.877332 9
    endloop
  endfacet
  facet normal 0 0 -1
    outer loop
      vertex -3.22437 0.407332 9
      vertex -6.9448 0.877332 9
      vertex -6.78008 1.74083 9
    endloop
  endfacet
  facet normal 0 0 -1
    outer loop
      vertex -3.25 0 9
      vertex -7 0 9
      vertex -6.9448 0.877332 9
    endloop
  endfacet
  facet normal 0.481755 -0.876306 0
    outer loop
      vertex 2.98045 -6.33379 9
      vertex 3.75079 -5.91029 65
      vertex 2.98045 -6.33379 65
    endloop
  endfacet
  facet normal 0.481755 -0.876306 0
    outer loop
      vertex 3.75079 -5.91029 65
      vertex 2.98045 -6.33379 9
      vertex 3.75079 -5.91029 9
    endloop
  endfacet
  facet normal 0.951058 -0.309011 0
    outer loop
      vertex 6.50844 -2.57687 65
      vertex 6.78008 -1.74083 9
      vertex 6.78008 -1.74083 65
    endloop
  endfacet
  facet normal 0.951058 -0.309011 0
    outer loop
      vertex 6.78008 -1.74083 9
      vertex 6.50844 -2.57687 65
      vertex 6.50844 -2.57687 9
    endloop
  endfacet
  facet normal 0.770511 -0.637427 0
    outer loop
      vertex 5.10278 -4.79183 65
      vertex 5.66312 -4.1145 9
      vertex 5.66312 -4.1145 65
    endloop
  endfacet
  facet normal 0.770511 -0.637427 0
    outer loop
      vertex 5.66312 -4.1145 9
      vertex 5.10278 -4.79183 65
      vertex 5.10278 -4.79183 9
    endloop
  endfacet
  facet normal -0.770511 -0.637427 0
    outer loop
      vertex -5.10278 -4.79183 9
      vertex -5.66312 -4.1145 65
      vertex -5.66312 -4.1145 9
    endloop
  endfacet
  facet normal -0.770511 -0.637427 0
    outer loop
      vertex -5.66312 -4.1145 65
      vertex -5.10278 -4.79183 9
      vertex -5.10278 -4.79183 65
    endloop
  endfacet
  facet normal -0.951058 -0.309011 0
    outer loop
      vertex -6.50844 -2.57687 9
      vertex -6.78008 -1.74083 65
      vertex -6.78008 -1.74083 9
    endloop
  endfacet
  facet normal -0.951058 -0.309011 0
    outer loop
      vertex -6.78008 -1.74083 65
      vertex -6.50844 -2.57687 9
      vertex -6.50844 -2.57687 65
    endloop
  endfacet
  facet normal -0.998027 -0.0627939 0
    outer loop
      vertex -6.9448 -0.877332 9
      vertex -7 0 65
      vertex -7 0 9
    endloop
  endfacet
  facet normal -0.998027 -0.0627939 0
    outer loop
      vertex -7 0 65
      vertex -6.9448 -0.877332 9
      vertex -6.9448 -0.877332 65
    endloop
  endfacet
  facet normal 0.684547 -0.728969 0
    outer loop
      vertex 4.46197 -5.39359 9
      vertex 5.10278 -4.79183 65
      vertex 4.46197 -5.39359 65
    endloop
  endfacet
  facet normal 0.684547 -0.728969 0
    outer loop
      vertex 5.10278 -4.79183 65
      vertex 4.46197 -5.39359 9
      vertex 5.10278 -4.79183 9
    endloop
  endfacet
  facet normal 0.368131 -0.929774 0
    outer loop
      vertex 2.16312 -6.6574 9
      vertex 2.98045 -6.33379 65
      vertex 2.16312 -6.6574 65
    endloop
  endfacet
  facet normal 0.368131 -0.929774 0
    outer loop
      vertex 2.98045 -6.33379 65
      vertex 2.16312 -6.6574 9
      vertex 2.98045 -6.33379 9
    endloop
  endfacet
  facet normal 0.248684 -0.968585 0
    outer loop
      vertex 1.31167 -6.87601 9
      vertex 2.16312 -6.6574 65
      vertex 1.31167 -6.87601 65
    endloop
  endfacet
  facet normal 0.248684 -0.968585 0
    outer loop
      vertex 2.16312 -6.6574 65
      vertex 1.31167 -6.87601 9
      vertex 2.16312 -6.6574 9
    endloop
  endfacet
  facet normal 0.982287 -0.18738 0
    outer loop
      vertex 6.78008 -1.74083 65
      vertex 6.9448 -0.877332 9
      vertex 6.9448 -0.877332 65
    endloop
  endfacet
  facet normal 0.982287 -0.18738 0
    outer loop
      vertex 6.9448 -0.877332 9
      vertex 6.78008 -1.74083 65
      vertex 6.78008 -1.74083 9
    endloop
  endfacet
  facet normal 0.844326 -0.535829 0
    outer loop
      vertex 5.66312 -4.1145 65
      vertex 6.13415 -3.37228 9
      vertex 6.13415 -3.37228 65
    endloop
  endfacet
  facet normal 0.844326 -0.535829 0
    outer loop
      vertex 6.13415 -3.37228 9
      vertex 5.66312 -4.1145 65
      vertex 5.66312 -4.1145 9
    endloop
  endfacet
  facet normal -0.125337 -0.992114 0
    outer loop
      vertex -1.31167 -6.87601 9
      vertex -0.439533 -6.98619 65
      vertex -1.31167 -6.87601 65
    endloop
  endfacet
  facet normal -0.125337 -0.992114 -0
    outer loop
      vertex -0.439533 -6.98619 65
      vertex -1.31167 -6.87601 9
      vertex -0.439533 -6.98619 9
    endloop
  endfacet
  facet normal -0.368131 -0.929774 0
    outer loop
      vertex -2.98045 -6.33379 9
      vertex -2.16312 -6.6574 65
      vertex -2.98045 -6.33379 65
    endloop
  endfacet
  facet normal -0.368131 -0.929774 -0
    outer loop
      vertex -2.16312 -6.6574 65
      vertex -2.98045 -6.33379 9
      vertex -2.16312 -6.6574 9
    endloop
  endfacet
  facet normal -0.248684 -0.968585 0
    outer loop
      vertex -2.16312 -6.6574 9
      vertex -1.31167 -6.87601 65
      vertex -2.16312 -6.6574 65
    endloop
  endfacet
  facet normal -0.248684 -0.968585 -0
    outer loop
      vertex -1.31167 -6.87601 65
      vertex -2.16312 -6.6574 9
      vertex -1.31167 -6.87601 9
    endloop
  endfacet
  facet normal -0.982287 -0.18738 0
    outer loop
      vertex -6.78008 -1.74083 9
      vertex -6.9448 -0.877332 65
      vertex -6.9448 -0.877332 9
    endloop
  endfacet
  facet normal -0.982287 -0.18738 0
    outer loop
      vertex -6.9448 -0.877332 65
      vertex -6.78008 -1.74083 9
      vertex -6.78008 -1.74083 65
    endloop
  endfacet
  facet normal 0.587783 -0.809018 0
    outer loop
      vertex 3.75079 -5.91029 9
      vertex 4.46197 -5.39359 65
      vertex 3.75079 -5.91029 65
    endloop
  endfacet
  facet normal 0.587783 -0.809018 0
    outer loop
      vertex 4.46197 -5.39359 65
      vertex 3.75079 -5.91029 9
      vertex 4.46197 -5.39359 9
    endloop
  endfacet
  facet normal -0.481755 -0.876306 0
    outer loop
      vertex -3.75079 -5.91029 9
      vertex -2.98045 -6.33379 65
      vertex -3.75079 -5.91029 65
    endloop
  endfacet
  facet normal -0.481755 -0.876306 -0
    outer loop
      vertex -2.98045 -6.33379 65
      vertex -3.75079 -5.91029 9
      vertex -2.98045 -6.33379 9
    endloop
  endfacet
  facet normal -0.587783 -0.809018 0
    outer loop
      vertex -4.46197 -5.39359 9
      vertex -3.75079 -5.91029 65
      vertex -4.46197 -5.39359 65
    endloop
  endfacet
  facet normal -0.587783 -0.809018 -0
    outer loop
      vertex -3.75079 -5.91029 65
      vertex -4.46197 -5.39359 9
      vertex -3.75079 -5.91029 9
    endloop
  endfacet
endsolid OpenSCAD_Model
