solid OpenSCAD_Model
  facet normal 1 0 0
    outer loop
      vertex -2.875 -1.50831 16
      vertex -2.875 -2.875 15.7
      vertex -2.875 -1.50831 15.4
    endloop
  endfacet
  facet normal 1 -0 0
    outer loop
      vertex -2.875 -5 16
      vertex -2.875 -2.875 15.7
      vertex -2.875 -1.50831 16
    endloop
  endfacet
  facet normal 1 0 0
    outer loop
      vertex -2.875 -2.875 15.7
      vertex -2.875 -5 16
      vertex -2.875 -5 15.7
    endloop
  endfacet
  facet normal 1 0 0
    outer loop
      vertex -2.875 -1.50831 15.4
      vertex -2.875 -2.875 15.7
      vertex -2.875 -2.875 15.4
    endloop
  endfacet
  facet normal 1 0 0
    outer loop
      vertex -2.875 5 16
      vertex -2.875 2.875 15.7
      vertex -2.875 5 15.7
    endloop
  endfacet
  facet normal 1 -0 0
    outer loop
      vertex -2.875 1.50831 16
      vertex -2.875 2.875 15.7
      vertex -2.875 5 16
    endloop
  endfacet
  facet normal 1 0 0
    outer loop
      vertex -2.875 1.50831 15.4
      vertex -2.875 2.875 15.7
      vertex -2.875 1.50831 16
    endloop
  endfacet
  facet normal 1 0 0
    outer loop
      vertex -2.875 2.875 15.7
      vertex -2.875 1.50831 15.4
      vertex -2.875 2.875 15.4
    endloop
  endfacet
  facet normal 0 0 1
    outer loop
      vertex -2.875 -1.50831 16
      vertex -2.95712 -5.12189 16
      vertex -2.875 -5 16
    endloop
  endfacet
  facet normal 0 0 1
    outer loop
      vertex -5.91425 0 16
      vertex -2.875 -1.50831 16
      vertex -3.02177 -1.1964 16
    endloop
  endfacet
  facet normal 0 0 1
    outer loop
      vertex -5.91425 0 16
      vertex -3.02177 -1.1964 16
      vertex -3.14789 -0.808242 16
    endloop
  endfacet
  facet normal 0 0 1
    outer loop
      vertex -5.91425 0 16
      vertex -3.14789 -0.808242 16
      vertex -3.22437 -0.407332 16
    endloop
  endfacet
  facet normal -0 0 1
    outer loop
      vertex -5.91425 0 16
      vertex -3.22437 -0.407332 16
      vertex -3.25 0 16
    endloop
  endfacet
  facet normal 0 0 1
    outer loop
      vertex -2.875 -1.50831 16
      vertex -5.91425 0 16
      vertex -2.95712 -5.12189 16
    endloop
  endfacet
  facet normal 0 0 1
    outer loop
      vertex 2.95712 5.12189 16
      vertex -2.875 5 16
      vertex 2.875 5 16
    endloop
  endfacet
  facet normal -0 0 1
    outer loop
      vertex -2.95712 5.12189 16
      vertex -2.875 5 16
      vertex 2.95712 5.12189 16
    endloop
  endfacet
  facet normal 0 0 1
    outer loop
      vertex -2.95712 5.12189 16
      vertex -2.875 1.50831 16
      vertex -2.875 5 16
    endloop
  endfacet
  facet normal 0 0 1
    outer loop
      vertex -5.91425 0 16
      vertex -2.875 1.50831 16
      vertex -2.95712 5.12189 16
    endloop
  endfacet
  facet normal 0 0 1
    outer loop
      vertex -2.875 1.50831 16
      vertex -5.91425 0 16
      vertex -3.02177 1.1964 16
    endloop
  endfacet
  facet normal 0 0 1
    outer loop
      vertex -3.02177 1.1964 16
      vertex -5.91425 0 16
      vertex -3.14789 0.808242 16
    endloop
  endfacet
  facet normal 0 0 1
    outer loop
      vertex -3.14789 0.808242 16
      vertex -5.91425 0 16
      vertex -3.22437 0.407332 16
    endloop
  endfacet
  facet normal 0 0 1
    outer loop
      vertex -3.22437 0.407332 16
      vertex -5.91425 0 16
      vertex -3.25 0 16
    endloop
  endfacet
  facet normal 0 0 1
    outer loop
      vertex 5.91425 0 16
      vertex 3.22437 0.407332 16
      vertex 3.25 0 16
    endloop
  endfacet
  facet normal 0 0 1
    outer loop
      vertex 5.91425 0 16
      vertex 3.14789 0.808242 16
      vertex 3.22437 0.407332 16
    endloop
  endfacet
  facet normal 0 0 1
    outer loop
      vertex 5.91425 0 16
      vertex 3.02177 1.1964 16
      vertex 3.14789 0.808242 16
    endloop
  endfacet
  facet normal -0 0 1
    outer loop
      vertex 2.875 1.50831 16
      vertex 5.91425 0 16
      vertex 2.95712 5.12189 16
    endloop
  endfacet
  facet normal 0 0 1
    outer loop
      vertex 2.875 1.50831 16
      vertex 2.95712 5.12189 16
      vertex 2.875 5 16
    endloop
  endfacet
  facet normal 0 0 1
    outer loop
      vertex 5.91425 0 16
      vertex 2.875 1.50831 16
      vertex 3.02177 1.1964 16
    endloop
  endfacet
  facet normal 0 0 1
    outer loop
      vertex 3.22437 -0.407332 16
      vertex 5.91425 0 16
      vertex 3.25 0 16
    endloop
  endfacet
  facet normal 0 0 1
    outer loop
      vertex 3.14789 -0.808242 16
      vertex 5.91425 0 16
      vertex 3.22437 -0.407332 16
    endloop
  endfacet
  facet normal 0 0 1
    outer loop
      vertex 3.02177 -1.1964 16
      vertex 5.91425 0 16
      vertex 3.14789 -0.808242 16
    endloop
  endfacet
  facet normal 0 0 1
    outer loop
      vertex 2.875 -1.50831 16
      vertex 5.91425 0 16
      vertex 3.02177 -1.1964 16
    endloop
  endfacet
  facet normal 0 0 1
    outer loop
      vertex 5.91425 0 16
      vertex 2.875 -1.50831 16
      vertex 2.95712 -5.12189 16
    endloop
  endfacet
  facet normal -0 0 1
    outer loop
      vertex 2.875 -5 16
      vertex 2.95712 -5.12189 16
      vertex 2.875 -1.50831 16
    endloop
  endfacet
  facet normal -0 0 1
    outer loop
      vertex -2.875 -5 16
      vertex 2.95712 -5.12189 16
      vertex 2.875 -5 16
    endloop
  endfacet
  facet normal 0 0 1
    outer loop
      vertex 2.95712 -5.12189 16
      vertex -2.875 -5 16
      vertex -2.95712 -5.12189 16
    endloop
  endfacet
  facet normal -1 0 0
    outer loop
      vertex 2.875 -2.875 15.7
      vertex 2.875 -1.50831 15.4
      vertex 2.875 -2.875 15.4
    endloop
  endfacet
  facet normal -1 0 0
    outer loop
      vertex 2.875 -1.50831 15.4
      vertex 2.875 -2.875 15.7
      vertex 2.875 -1.50831 16
    endloop
  endfacet
  facet normal -1 0 0
    outer loop
      vertex 2.875 -5 16
      vertex 2.875 -2.875 15.7
      vertex 2.875 -5 15.7
    endloop
  endfacet
  facet normal -1 0 0
    outer loop
      vertex 2.875 -2.875 15.7
      vertex 2.875 -5 16
      vertex 2.875 -1.50831 16
    endloop
  endfacet
  facet normal -1 0 0
    outer loop
      vertex 2.875 2.875 15.4
      vertex 2.875 1.50831 15.4
      vertex 2.875 2.875 15.7
    endloop
  endfacet
  facet normal -1 0 0
    outer loop
      vertex 2.875 2.875 15.7
      vertex 2.875 5 16
      vertex 2.875 5 15.7
    endloop
  endfacet
  facet normal -1 0 0
    outer loop
      vertex 2.875 2.875 15.7
      vertex 2.875 1.50831 16
      vertex 2.875 5 16
    endloop
  endfacet
  facet normal -1 0 0
    outer loop
      vertex 2.875 1.50831 16
      vertex 2.875 2.875 15.7
      vertex 2.875 1.50831 15.4
    endloop
  endfacet
  facet normal -0 0 1
    outer loop
      vertex 1.50327 -2.875 15.7
      vertex 2.875 -5 15.7
      vertex 2.875 -2.875 15.7
    endloop
  endfacet
  facet normal -0 0 1
    outer loop
      vertex 1.38378 -2.94069 15.7
      vertex 2.875 -5 15.7
      vertex 1.50327 -2.875 15.7
    endloop
  endfacet
  facet normal -0 0 1
    outer loop
      vertex 1.0043 -3.09093 15.7
      vertex 2.875 -5 15.7
      vertex 1.38378 -2.94069 15.7
    endloop
  endfacet
  facet normal -0 0 1
    outer loop
      vertex 0.608989 -3.19243 15.7
      vertex 2.875 -5 15.7
      vertex 1.0043 -3.09093 15.7
    endloop
  endfacet
  facet normal -0 0 1
    outer loop
      vertex 0.204069 -3.24359 15.7
      vertex 2.875 -5 15.7
      vertex 0.608989 -3.19243 15.7
    endloop
  endfacet
  facet normal -0 0 1
    outer loop
      vertex -0.204069 -3.24359 15.7
      vertex 2.875 -5 15.7
      vertex 0.204069 -3.24359 15.7
    endloop
  endfacet
  facet normal 0 0 1
    outer loop
      vertex -2.875 -5 15.7
      vertex -0.204069 -3.24359 15.7
      vertex -0.608989 -3.19243 15.7
    endloop
  endfacet
  facet normal 0 0 1
    outer loop
      vertex -2.875 -5 15.7
      vertex -0.608989 -3.19243 15.7
      vertex -1.0043 -3.09093 15.7
    endloop
  endfacet
  facet normal 0 0 1
    outer loop
      vertex -2.875 -5 15.7
      vertex -1.0043 -3.09093 15.7
      vertex -1.38378 -2.94069 15.7
    endloop
  endfacet
  facet normal 0 0 1
    outer loop
      vertex -2.875 -5 15.7
      vertex -1.50327 -2.875 15.7
      vertex -2.875 -2.875 15.7
    endloop
  endfacet
  facet normal 0 0 1
    outer loop
      vertex -1.50327 -2.875 15.7
      vertex -2.875 -5 15.7
      vertex -1.38378 -2.94069 15.7
    endloop
  endfacet
  facet normal 0 0 1
    outer loop
      vertex -0.204069 -3.24359 15.7
      vertex -2.875 -5 15.7
      vertex 2.875 -5 15.7
    endloop
  endfacet
  facet normal 0 0 1
    outer loop
      vertex 2.875 5 15.7
      vertex 1.50327 2.875 15.7
      vertex 2.875 2.875 15.7
    endloop
  endfacet
  facet normal 0 0 1
    outer loop
      vertex 2.875 5 15.7
      vertex 1.38378 2.94069 15.7
      vertex 1.50327 2.875 15.7
    endloop
  endfacet
  facet normal 0 0 1
    outer loop
      vertex 2.875 5 15.7
      vertex 1.0043 3.09093 15.7
      vertex 1.38378 2.94069 15.7
    endloop
  endfacet
  facet normal 0 0 1
    outer loop
      vertex 2.875 5 15.7
      vertex 0.608989 3.19243 15.7
      vertex 1.0043 3.09093 15.7
    endloop
  endfacet
  facet normal 0 0 1
    outer loop
      vertex 2.875 5 15.7
      vertex 0.204069 3.24359 15.7
      vertex 0.608989 3.19243 15.7
    endloop
  endfacet
  facet normal 0 0 1
    outer loop
      vertex 2.875 5 15.7
      vertex -0.204069 3.24359 15.7
      vertex 0.204069 3.24359 15.7
    endloop
  endfacet
  facet normal -0 0 1
    outer loop
      vertex -2.875 5 15.7
      vertex -0.204069 3.24359 15.7
      vertex 2.875 5 15.7
    endloop
  endfacet
  facet normal 0 0 1
    outer loop
      vertex -0.204069 3.24359 15.7
      vertex -2.875 5 15.7
      vertex -0.608989 3.19243 15.7
    endloop
  endfacet
  facet normal 0 0 1
    outer loop
      vertex -0.608989 3.19243 15.7
      vertex -2.875 5 15.7
      vertex -1.0043 3.09093 15.7
    endloop
  endfacet
  facet normal 0 0 1
    outer loop
      vertex -1.0043 3.09093 15.7
      vertex -2.875 5 15.7
      vertex -1.38378 2.94069 15.7
    endloop
  endfacet
  facet normal 0 0 1
    outer loop
      vertex -2.875 5 15.7
      vertex -1.50327 2.875 15.7
      vertex -1.38378 2.94069 15.7
    endloop
  endfacet
  facet normal 0 0 1
    outer loop
      vertex -1.50327 2.875 15.7
      vertex -2.875 5 15.7
      vertex -2.875 2.875 15.7
    endloop
  endfacet
  facet normal 0 1 -0
    outer loop
      vertex 2.875 -5 15.7
      vertex -2.875 -5 16
      vertex 2.875 -5 16
    endloop
  endfacet
  facet normal 0 1 0
    outer loop
      vertex -2.875 -5 16
      vertex 2.875 -5 15.7
      vertex -2.875 -5 15.7
    endloop
  endfacet
  facet normal 0 -1 0
    outer loop
      vertex -2.875 5 15.7
      vertex 2.875 5 16
      vertex -2.875 5 16
    endloop
  endfacet
  facet normal 0 -1 -0
    outer loop
      vertex 2.875 5 16
      vertex -2.875 5 15.7
      vertex 2.875 5 15.7
    endloop
  endfacet
  facet normal 0 -1 0
    outer loop
      vertex 1.50327 2.875 15.4
      vertex 2.875 2.875 15.7
      vertex 1.50327 2.875 15.7
    endloop
  endfacet
  facet normal 0 -1 -0
    outer loop
      vertex 2.875 2.875 15.7
      vertex 1.50327 2.875 15.4
      vertex 2.875 2.875 15.4
    endloop
  endfacet
  facet normal 0 -1 0
    outer loop
      vertex -2.875 2.875 15.4
      vertex -1.50327 2.875 15.7
      vertex -2.875 2.875 15.7
    endloop
  endfacet
  facet normal 0 -1 -0
    outer loop
      vertex -1.50327 2.875 15.7
      vertex -2.875 2.875 15.4
      vertex -1.50327 2.875 15.4
    endloop
  endfacet
  facet normal 0 0 1
    outer loop
      vertex -1.74144 -2.74407 15.4
      vertex -2.875 -2.875 15.4
      vertex -1.50327 -2.875 15.4
    endloop
  endfacet
  facet normal 0 0 1
    outer loop
      vertex -2.07163 -2.50417 15.4
      vertex -2.875 -2.875 15.4
      vertex -1.74144 -2.74407 15.4
    endloop
  endfacet
  facet normal 0 0 1
    outer loop
      vertex -2.36915 -2.22478 15.4
      vertex -2.875 -2.875 15.4
      vertex -2.07163 -2.50417 15.4
    endloop
  endfacet
  facet normal 0 0 1
    outer loop
      vertex -2.6293 -1.9103 15.4
      vertex -2.875 -2.875 15.4
      vertex -2.36915 -2.22478 15.4
    endloop
  endfacet
  facet normal 0 0 1
    outer loop
      vertex -2.848 -1.5657 15.4
      vertex -2.875 -2.875 15.4
      vertex -2.6293 -1.9103 15.4
    endloop
  endfacet
  facet normal 0 0 1
    outer loop
      vertex -2.875 -2.875 15.4
      vertex -2.848 -1.5657 15.4
      vertex -2.875 -1.50831 15.4
    endloop
  endfacet
  facet normal 0 0 1
    outer loop
      vertex 2.875 2.875 15.4
      vertex 2.848 1.5657 15.4
      vertex 2.875 1.50831 15.4
    endloop
  endfacet
  facet normal 0 0 1
    outer loop
      vertex 2.875 2.875 15.4
      vertex 2.6293 1.9103 15.4
      vertex 2.848 1.5657 15.4
    endloop
  endfacet
  facet normal 0 0 1
    outer loop
      vertex 2.875 2.875 15.4
      vertex 2.36915 2.22478 15.4
      vertex 2.6293 1.9103 15.4
    endloop
  endfacet
  facet normal 0 0 1
    outer loop
      vertex 2.875 2.875 15.4
      vertex 2.07163 2.50417 15.4
      vertex 2.36915 2.22478 15.4
    endloop
  endfacet
  facet normal 0 0 1
    outer loop
      vertex 2.875 2.875 15.4
      vertex 1.74144 2.74407 15.4
      vertex 2.07163 2.50417 15.4
    endloop
  endfacet
  facet normal 0 -0 1
    outer loop
      vertex 1.74144 2.74407 15.4
      vertex 2.875 2.875 15.4
      vertex 1.50327 2.875 15.4
    endloop
  endfacet
  facet normal -0 0 1
    outer loop
      vertex -2.875 2.875 15.4
      vertex -1.74144 2.74407 15.4
      vertex -1.50327 2.875 15.4
    endloop
  endfacet
  facet normal 0 0 1
    outer loop
      vertex -2.875 2.875 15.4
      vertex -2.07163 2.50417 15.4
      vertex -1.74144 2.74407 15.4
    endloop
  endfacet
  facet normal 0 0 1
    outer loop
      vertex -2.875 2.875 15.4
      vertex -2.36915 2.22478 15.4
      vertex -2.07163 2.50417 15.4
    endloop
  endfacet
  facet normal 0 0 1
    outer loop
      vertex -2.875 2.875 15.4
      vertex -2.6293 1.9103 15.4
      vertex -2.36915 2.22478 15.4
    endloop
  endfacet
  facet normal 0 0 1
    outer loop
      vertex -2.875 2.875 15.4
      vertex -2.848 1.5657 15.4
      vertex -2.6293 1.9103 15.4
    endloop
  endfacet
  facet normal 0 0 1
    outer loop
      vertex -2.848 1.5657 15.4
      vertex -2.875 2.875 15.4
      vertex -2.875 1.50831 15.4
    endloop
  endfacet
  facet normal -0 0 1
    outer loop
      vertex 2.848 -1.5657 15.4
      vertex 2.875 -2.875 15.4
      vertex 2.875 -1.50831 15.4
    endloop
  endfacet
  facet normal -0 0 1
    outer loop
      vertex 2.6293 -1.9103 15.4
      vertex 2.875 -2.875 15.4
      vertex 2.848 -1.5657 15.4
    endloop
  endfacet
  facet normal -0 0 1
    outer loop
      vertex 2.36915 -2.22478 15.4
      vertex 2.875 -2.875 15.4
      vertex 2.6293 -1.9103 15.4
    endloop
  endfacet
  facet normal -0 0 1
    outer loop
      vertex 2.07163 -2.50417 15.4
      vertex 2.875 -2.875 15.4
      vertex 2.36915 -2.22478 15.4
    endloop
  endfacet
  facet normal -0 0 1
    outer loop
      vertex 1.74144 -2.74407 15.4
      vertex 2.875 -2.875 15.4
      vertex 2.07163 -2.50417 15.4
    endloop
  endfacet
  facet normal 0 0 1
    outer loop
      vertex 2.875 -2.875 15.4
      vertex 1.74144 -2.74407 15.4
      vertex 1.50327 -2.875 15.4
    endloop
  endfacet
  facet normal 0 1 -0
    outer loop
      vertex 2.875 -2.875 15.4
      vertex 1.50327 -2.875 15.7
      vertex 2.875 -2.875 15.7
    endloop
  endfacet
  facet normal 0 1 0
    outer loop
      vertex 1.50327 -2.875 15.7
      vertex 2.875 -2.875 15.4
      vertex 1.50327 -2.875 15.4
    endloop
  endfacet
  facet normal 0 1 -0
    outer loop
      vertex -1.50327 -2.875 15.4
      vertex -2.875 -2.875 15.7
      vertex -1.50327 -2.875 15.7
    endloop
  endfacet
  facet normal 0 1 0
    outer loop
      vertex -2.875 -2.875 15.7
      vertex -1.50327 -2.875 15.4
      vertex -2.875 -2.875 15.4
    endloop
  endfacet
  facet normal 0 0 1
    outer loop
      vertex 5.91425 0 21
      vertex 9 0 21
      vertex 8.92903 1.128 21
    endloop
  endfacet
  facet normal 0 0 1
    outer loop
      vertex 5.91425 0 21
      vertex 8.92903 1.128 21
      vertex 8.71725 2.23821 21
    endloop
  endfacet
  facet normal 0 0 1
    outer loop
      vertex 9 0 21
      vertex 5.91425 0 21
      vertex 8.92903 -1.128 21
    endloop
  endfacet
  facet normal 0 0 1
    outer loop
      vertex 5.91425 0 21
      vertex 8.71725 2.23821 21
      vertex 8.36799 3.31312 21
    endloop
  endfacet
  facet normal 0 0 1
    outer loop
      vertex 8.92903 -1.128 21
      vertex 5.91425 0 21
      vertex 8.71725 -2.23821 21
    endloop
  endfacet
  facet normal 0 0 1
    outer loop
      vertex 5.91425 0 21
      vertex 8.36799 3.31312 21
      vertex 7.88676 4.33578 21
    endloop
  endfacet
  facet normal 0 0 1
    outer loop
      vertex 8.71725 -2.23821 21
      vertex 5.91425 0 21
      vertex 8.36799 -3.31312 21
    endloop
  endfacet
  facet normal -0 0 1
    outer loop
      vertex 2.95712 5.12189 21
      vertex 7.88676 4.33578 21
      vertex 7.28115 5.29007 21
    endloop
  endfacet
  facet normal 0 0 1
    outer loop
      vertex 8.36799 -3.31312 21
      vertex 5.91425 0 21
      vertex 7.88676 -4.33578 21
    endloop
  endfacet
  facet normal 0 0 1
    outer loop
      vertex 2.95712 5.12189 21
      vertex 7.28115 5.29007 21
      vertex 6.56072 6.16092 21
    endloop
  endfacet
  facet normal 0 0 1
    outer loop
      vertex 2.95712 -5.12189 21
      vertex 7.88676 -4.33578 21
      vertex 5.91425 0 21
    endloop
  endfacet
  facet normal 0 0 1
    outer loop
      vertex 7.88676 -4.33578 21
      vertex 2.95712 -5.12189 21
      vertex 7.28115 -5.29007 21
    endloop
  endfacet
  facet normal 0 0 1
    outer loop
      vertex 2.95712 5.12189 21
      vertex 6.56072 6.16092 21
      vertex 5.73682 6.93462 21
    endloop
  endfacet
  facet normal 0 0 1
    outer loop
      vertex 2.95712 5.12189 21
      vertex 5.73682 6.93462 21
      vertex 4.82244 7.59895 21
    endloop
  endfacet
  facet normal 0 0 1
    outer loop
      vertex 2.95712 5.12189 21
      vertex 4.82244 7.59895 21
      vertex 3.83201 8.14344 21
    endloop
  endfacet
  facet normal 0 0 1
    outer loop
      vertex 7.88676 4.33578 21
      vertex 2.95712 5.12189 21
      vertex 5.91425 0 21
    endloop
  endfacet
  facet normal 0 0 1
    outer loop
      vertex 2.78115 8.55951 21
      vertex 2.95712 5.12189 21
      vertex 3.83201 8.14344 21
    endloop
  endfacet
  facet normal 0 0 1
    outer loop
      vertex 1.68643 8.84058 21
      vertex 2.95712 5.12189 21
      vertex 2.78115 8.55951 21
    endloop
  endfacet
  facet normal 0 0 1
    outer loop
      vertex 0.565114 8.98224 21
      vertex 2.95712 5.12189 21
      vertex 1.68643 8.84058 21
    endloop
  endfacet
  facet normal -0 0 1
    outer loop
      vertex -0.565114 8.98224 21
      vertex 2.95712 5.12189 21
      vertex 0.565114 8.98224 21
    endloop
  endfacet
  facet normal 0 0 1
    outer loop
      vertex -2.95712 5.12189 21
      vertex -0.565114 8.98224 21
      vertex -1.68643 8.84058 21
    endloop
  endfacet
  facet normal 0 0 1
    outer loop
      vertex -2.95712 5.12189 21
      vertex -1.68643 8.84058 21
      vertex -2.78115 8.55951 21
    endloop
  endfacet
  facet normal 0 0 1
    outer loop
      vertex -0.565114 8.98224 21
      vertex -2.95712 5.12189 21
      vertex 2.95712 5.12189 21
    endloop
  endfacet
  facet normal -0 0 1
    outer loop
      vertex -3.83201 8.14344 21
      vertex -2.95712 5.12189 21
      vertex -2.78115 8.55951 21
    endloop
  endfacet
  facet normal -0 0 1
    outer loop
      vertex -4.82244 7.59895 21
      vertex -2.95712 5.12189 21
      vertex -3.83201 8.14344 21
    endloop
  endfacet
  facet normal -0 0 1
    outer loop
      vertex -5.73682 6.93462 21
      vertex -2.95712 5.12189 21
      vertex -4.82244 7.59895 21
    endloop
  endfacet
  facet normal -0 0 1
    outer loop
      vertex -6.56072 6.16092 21
      vertex -2.95712 5.12189 21
      vertex -5.73682 6.93462 21
    endloop
  endfacet
  facet normal -0 0 1
    outer loop
      vertex -7.28115 5.29007 21
      vertex -2.95712 5.12189 21
      vertex -6.56072 6.16092 21
    endloop
  endfacet
  facet normal 0 0 1
    outer loop
      vertex 7.28115 -5.29007 21
      vertex 2.95712 -5.12189 21
      vertex 6.56072 -6.16092 21
    endloop
  endfacet
  facet normal 0 0 1
    outer loop
      vertex 6.56072 -6.16092 21
      vertex 2.95712 -5.12189 21
      vertex 5.73682 -6.93462 21
    endloop
  endfacet
  facet normal 0 0 1
    outer loop
      vertex 5.73682 -6.93462 21
      vertex 2.95712 -5.12189 21
      vertex 4.82244 -7.59895 21
    endloop
  endfacet
  facet normal 0 0 1
    outer loop
      vertex 4.82244 -7.59895 21
      vertex 2.95712 -5.12189 21
      vertex 3.83201 -8.14344 21
    endloop
  endfacet
  facet normal 0 0 1
    outer loop
      vertex 2.95712 -5.12189 21
      vertex 2.78115 -8.55951 21
      vertex 3.83201 -8.14344 21
    endloop
  endfacet
  facet normal 0 0 1
    outer loop
      vertex 2.95712 -5.12189 21
      vertex 1.68643 -8.84058 21
      vertex 2.78115 -8.55951 21
    endloop
  endfacet
  facet normal 0 0 1
    outer loop
      vertex 2.95712 -5.12189 21
      vertex 0.565114 -8.98224 21
      vertex 1.68643 -8.84058 21
    endloop
  endfacet
  facet normal 0 0 1
    outer loop
      vertex 2.95712 -5.12189 21
      vertex -0.565114 -8.98224 21
      vertex 0.565114 -8.98224 21
    endloop
  endfacet
  facet normal -0 0 1
    outer loop
      vertex -2.95712 -5.12189 21
      vertex -0.565114 -8.98224 21
      vertex 2.95712 -5.12189 21
    endloop
  endfacet
  facet normal 0 0 1
    outer loop
      vertex -0.565114 -8.98224 21
      vertex -2.95712 -5.12189 21
      vertex -1.68643 -8.84058 21
    endloop
  endfacet
  facet normal 0 0 1
    outer loop
      vertex -1.68643 -8.84058 21
      vertex -2.95712 -5.12189 21
      vertex -2.78115 -8.55951 21
    endloop
  endfacet
  facet normal 0 0 1
    outer loop
      vertex -2.95712 -5.12189 21
      vertex -3.83201 -8.14344 21
      vertex -2.78115 -8.55951 21
    endloop
  endfacet
  facet normal 0 0 1
    outer loop
      vertex -2.95712 -5.12189 21
      vertex -4.82244 -7.59895 21
      vertex -3.83201 -8.14344 21
    endloop
  endfacet
  facet normal 0 0 1
    outer loop
      vertex -2.95712 -5.12189 21
      vertex -5.73682 -6.93462 21
      vertex -4.82244 -7.59895 21
    endloop
  endfacet
  facet normal -0 0 1
    outer loop
      vertex -7.88676 -4.33578 21
      vertex -2.95712 -5.12189 21
      vertex -5.91425 0 21
    endloop
  endfacet
  facet normal 0 0 1
    outer loop
      vertex -7.88676 4.33578 21
      vertex -2.95712 5.12189 21
      vertex -7.28115 5.29007 21
    endloop
  endfacet
  facet normal 0 0 1
    outer loop
      vertex -2.95712 -5.12189 21
      vertex -6.56072 -6.16092 21
      vertex -5.73682 -6.93462 21
    endloop
  endfacet
  facet normal 0 0 1
    outer loop
      vertex -2.95712 5.12189 21
      vertex -7.88676 4.33578 21
      vertex -5.91425 0 21
    endloop
  endfacet
  facet normal 0 0 1
    outer loop
      vertex -2.95712 -5.12189 21
      vertex -7.28115 -5.29007 21
      vertex -6.56072 -6.16092 21
    endloop
  endfacet
  facet normal -0 0 1
    outer loop
      vertex -8.36799 3.31312 21
      vertex -5.91425 0 21
      vertex -7.88676 4.33578 21
    endloop
  endfacet
  facet normal 0 0 1
    outer loop
      vertex -2.95712 -5.12189 21
      vertex -7.88676 -4.33578 21
      vertex -7.28115 -5.29007 21
    endloop
  endfacet
  facet normal -0 0 1
    outer loop
      vertex -8.71725 2.23821 21
      vertex -5.91425 0 21
      vertex -8.36799 3.31312 21
    endloop
  endfacet
  facet normal 0 0 1
    outer loop
      vertex -5.91425 0 21
      vertex -8.36799 -3.31312 21
      vertex -7.88676 -4.33578 21
    endloop
  endfacet
  facet normal -0 0 1
    outer loop
      vertex -8.92903 1.128 21
      vertex -5.91425 0 21
      vertex -8.71725 2.23821 21
    endloop
  endfacet
  facet normal 0 0 1
    outer loop
      vertex -5.91425 0 21
      vertex -8.71725 -2.23821 21
      vertex -8.36799 -3.31312 21
    endloop
  endfacet
  facet normal 0 0 1
    outer loop
      vertex -9 0 21
      vertex -5.91425 0 21
      vertex -8.92903 1.128 21
    endloop
  endfacet
  facet normal 0 0 1
    outer loop
      vertex -5.91425 0 21
      vertex -8.92903 -1.128 21
      vertex -8.71725 -2.23821 21
    endloop
  endfacet
  facet normal 0 0 1
    outer loop
      vertex -5.91425 0 21
      vertex -9 0 21
      vertex -8.92903 -1.128 21
    endloop
  endfacet
  facet normal -0.998026 -0.0627975 0
    outer loop
      vertex 3.25 0 9
      vertex 3.22437 0.407332 16
      vertex 3.22437 0.407332 9
    endloop
  endfacet
  facet normal -0.998026 -0.0627975 0
    outer loop
      vertex 3.22437 0.407332 16
      vertex 3.25 0 9
      vertex 3.25 0 16
    endloop
  endfacet
  facet normal 0.998026 -0.0627975 0
    outer loop
      vertex -3.25 0 16
      vertex -3.22437 0.407332 9
      vertex -3.22437 0.407332 16
    endloop
  endfacet
  facet normal 0.998026 -0.0627975 0
    outer loop
      vertex -3.22437 0.407332 9
      vertex -3.25 0 16
      vertex -3.25 0 9
    endloop
  endfacet
  facet normal 0 -1 0
    outer loop
      vertex -0.204069 3.24359 9
      vertex 0.204069 3.24359 15.7
      vertex -0.204069 3.24359 15.7
    endloop
  endfacet
  facet normal 0 -1 -0
    outer loop
      vertex 0.204069 3.24359 15.7
      vertex -0.204069 3.24359 9
      vertex 0.204069 3.24359 9
    endloop
  endfacet
  facet normal 0 1 -0
    outer loop
      vertex 0.204069 -3.24359 9
      vertex -0.204069 -3.24359 15.7
      vertex 0.204069 -3.24359 15.7
    endloop
  endfacet
  facet normal 0 1 0
    outer loop
      vertex -0.204069 -3.24359 15.7
      vertex 0.204069 -3.24359 9
      vertex -0.204069 -3.24359 9
    endloop
  endfacet
  facet normal -0.684547 -0.728968 0
    outer loop
      vertex 2.07163 2.50417 9
      vertex 2.36915 2.22478 15.4
      vertex 2.07163 2.50417 15.4
    endloop
  endfacet
  facet normal -0.684547 -0.728968 -0
    outer loop
      vertex 2.36915 2.22478 15.4
      vertex 2.07163 2.50417 9
      vertex 2.36915 2.22478 9
    endloop
  endfacet
  facet normal 0.684547 -0.728968 0
    outer loop
      vertex -2.36915 2.22478 9
      vertex -2.07163 2.50417 15.4
      vertex -2.36915 2.22478 15.4
    endloop
  endfacet
  facet normal 0.684547 -0.728968 0
    outer loop
      vertex -2.07163 2.50417 15.4
      vertex -2.36915 2.22478 9
      vertex -2.07163 2.50417 9
    endloop
  endfacet
  facet normal 0.36811 -0.929782 0
    outer loop
      vertex -1.38378 2.94069 9
      vertex -1.0043 3.09093 15.7
      vertex -1.38378 2.94069 15.7
    endloop
  endfacet
  facet normal 0.36811 -0.929782 0
    outer loop
      vertex -1.0043 3.09093 15.7
      vertex -1.38378 2.94069 9
      vertex -1.0043 3.09093 9
    endloop
  endfacet
  facet normal -0.904862 -0.425706 0
    outer loop
      vertex 2.848 1.5657 9
      vertex 2.875 1.50831 15.4
      vertex 2.848 1.5657 15.4
    endloop
  endfacet
  facet normal -0.904836 -0.42576 -5.97336e-07
    outer loop
      vertex 3.02177 1.1964 9
      vertex 2.875 1.50831 15.4
      vertex 2.848 1.5657 9
    endloop
  endfacet
  facet normal -0.904831 -0.42577 -0
    outer loop
      vertex 3.02177 1.1964 16
      vertex 2.875 1.50831 15.4
      vertex 3.02177 1.1964 9
    endloop
  endfacet
  facet normal -0.904831 -0.42577 0
    outer loop
      vertex 2.875 1.50831 15.4
      vertex 3.02177 1.1964 16
      vertex 2.875 1.50831 16
    endloop
  endfacet
  facet normal -0.844317 -0.535845 0
    outer loop
      vertex 2.848 1.5657 9
      vertex 2.6293 1.9103 15.4
      vertex 2.6293 1.9103 9
    endloop
  endfacet
  facet normal -0.844317 -0.535845 0
    outer loop
      vertex 2.6293 1.9103 15.4
      vertex 2.848 1.5657 9
      vertex 2.848 1.5657 15.4
    endloop
  endfacet
  facet normal -0.36811 -0.929782 0
    outer loop
      vertex 1.0043 3.09093 9
      vertex 1.38378 2.94069 15.7
      vertex 1.0043 3.09093 15.7
    endloop
  endfacet
  facet normal -0.36811 -0.929782 -0
    outer loop
      vertex 1.38378 2.94069 15.7
      vertex 1.0043 3.09093 9
      vertex 1.38378 2.94069 9
    endloop
  endfacet
  facet normal -0.248693 -0.968582 0
    outer loop
      vertex 0.608989 3.19243 9
      vertex 1.0043 3.09093 15.7
      vertex 0.608989 3.19243 15.7
    endloop
  endfacet
  facet normal -0.248693 -0.968582 -0
    outer loop
      vertex 1.0043 3.09093 15.7
      vertex 0.608989 3.19243 9
      vertex 1.0043 3.09093 9
    endloop
  endfacet
  facet normal -0.58779 -0.809014 0
    outer loop
      vertex 1.74144 2.74407 9
      vertex 2.07163 2.50417 15.4
      vertex 1.74144 2.74407 15.4
    endloop
  endfacet
  facet normal -0.58779 -0.809014 -0
    outer loop
      vertex 2.07163 2.50417 15.4
      vertex 1.74144 2.74407 9
      vertex 2.07163 2.50417 9
    endloop
  endfacet
  facet normal 0.904831 -0.42577 0
    outer loop
      vertex -2.875 1.50831 16
      vertex -3.02177 1.1964 16
      vertex -2.875 1.50831 15.4
    endloop
  endfacet
  facet normal 0.904862 -0.425706 0
    outer loop
      vertex -2.875 1.50831 15.4
      vertex -2.848 1.5657 9
      vertex -2.848 1.5657 15.4
    endloop
  endfacet
  facet normal 0.904831 -0.42577 0
    outer loop
      vertex -3.02177 1.1964 9
      vertex -2.875 1.50831 15.4
      vertex -3.02177 1.1964 16
    endloop
  endfacet
  facet normal 0.904836 -0.42576 -5.97336e-07
    outer loop
      vertex -2.875 1.50831 15.4
      vertex -3.02177 1.1964 9
      vertex -2.848 1.5657 9
    endloop
  endfacet
  facet normal 0.770526 -0.637409 0
    outer loop
      vertex -2.6293 1.9103 15.4
      vertex -2.36915 2.22478 9
      vertex -2.36915 2.22478 15.4
    endloop
  endfacet
  facet normal 0.770526 -0.637409 0
    outer loop
      vertex -2.36915 2.22478 9
      vertex -2.6293 1.9103 15.4
      vertex -2.6293 1.9103 9
    endloop
  endfacet
  facet normal 0.951057 -0.309017 0
    outer loop
      vertex -3.14789 0.808242 16
      vertex -3.02177 1.1964 9
      vertex -3.02177 1.1964 16
    endloop
  endfacet
  facet normal 0.951057 -0.309017 0
    outer loop
      vertex -3.02177 1.1964 9
      vertex -3.14789 0.808242 16
      vertex -3.14789 0.808242 9
    endloop
  endfacet
  facet normal 0.481739 -0.876315 0
    outer loop
      vertex -1.74144 2.74407 15.4
      vertex -1.74144 2.74407 9
      vertex -1.50327 2.875 15.4
    endloop
  endfacet
  facet normal 0.481753 -0.876307 0
    outer loop
      vertex -1.50327 2.875 15.4
      vertex -1.38378 2.94069 15.7
      vertex -1.50327 2.875 15.7
    endloop
  endfacet
  facet normal 0.481744 -0.876312 -2.14999e-07
    outer loop
      vertex -1.38378 2.94069 9
      vertex -1.50327 2.875 15.4
      vertex -1.74144 2.74407 9
    endloop
  endfacet
  facet normal 0.481753 -0.876307 0
    outer loop
      vertex -1.50327 2.875 15.4
      vertex -1.38378 2.94069 9
      vertex -1.38378 2.94069 15.7
    endloop
  endfacet
  facet normal 0.125349 -0.992113 0
    outer loop
      vertex -0.608989 3.19243 9
      vertex -0.204069 3.24359 15.7
      vertex -0.608989 3.19243 15.7
    endloop
  endfacet
  facet normal 0.125349 -0.992113 0
    outer loop
      vertex -0.204069 3.24359 15.7
      vertex -0.608989 3.19243 9
      vertex -0.204069 3.24359 9
    endloop
  endfacet
  facet normal -0.125349 0.992113 0
    outer loop
      vertex 0.608989 -3.19243 9
      vertex 0.204069 -3.24359 15.7
      vertex 0.608989 -3.19243 15.7
    endloop
  endfacet
  facet normal -0.125349 0.992113 0
    outer loop
      vertex 0.204069 -3.24359 15.7
      vertex 0.608989 -3.19243 9
      vertex 0.204069 -3.24359 9
    endloop
  endfacet
  facet normal -0.481739 0.876315 0
    outer loop
      vertex 1.74144 -2.74407 15.4
      vertex 1.74144 -2.74407 9
      vertex 1.50327 -2.875 15.4
    endloop
  endfacet
  facet normal -0.481753 0.876307 0
    outer loop
      vertex 1.50327 -2.875 15.4
      vertex 1.38378 -2.94069 15.7
      vertex 1.50327 -2.875 15.7
    endloop
  endfacet
  facet normal -0.481744 0.876312 -2.14999e-07
    outer loop
      vertex 1.38378 -2.94069 9
      vertex 1.50327 -2.875 15.4
      vertex 1.74144 -2.74407 9
    endloop
  endfacet
  facet normal -0.481753 0.876307 0
    outer loop
      vertex 1.50327 -2.875 15.4
      vertex 1.38378 -2.94069 9
      vertex 1.38378 -2.94069 15.7
    endloop
  endfacet
  facet normal -0.951057 -0.309017 0
    outer loop
      vertex 3.14789 0.808242 9
      vertex 3.02177 1.1964 16
      vertex 3.02177 1.1964 9
    endloop
  endfacet
  facet normal -0.951057 -0.309017 0
    outer loop
      vertex 3.02177 1.1964 16
      vertex 3.14789 0.808242 9
      vertex 3.14789 0.808242 16
    endloop
  endfacet
  facet normal -0.982286 -0.187387 0
    outer loop
      vertex 3.22437 0.407332 9
      vertex 3.14789 0.808242 16
      vertex 3.14789 0.808242 9
    endloop
  endfacet
  facet normal -0.982286 -0.187387 0
    outer loop
      vertex 3.14789 0.808242 16
      vertex 3.22437 0.407332 9
      vertex 3.22437 0.407332 16
    endloop
  endfacet
  facet normal -0.770526 -0.637409 0
    outer loop
      vertex 2.6293 1.9103 9
      vertex 2.36915 2.22478 15.4
      vertex 2.36915 2.22478 9
    endloop
  endfacet
  facet normal -0.770526 -0.637409 0
    outer loop
      vertex 2.36915 2.22478 15.4
      vertex 2.6293 1.9103 9
      vertex 2.6293 1.9103 15.4
    endloop
  endfacet
  facet normal -0.125349 -0.992113 0
    outer loop
      vertex 0.204069 3.24359 9
      vertex 0.608989 3.19243 15.7
      vertex 0.204069 3.24359 15.7
    endloop
  endfacet
  facet normal -0.125349 -0.992113 -0
    outer loop
      vertex 0.608989 3.19243 15.7
      vertex 0.204069 3.24359 9
      vertex 0.608989 3.19243 9
    endloop
  endfacet
  facet normal -0.481753 -0.876307 0
    outer loop
      vertex 1.38378 2.94069 15.7
      vertex 1.50327 2.875 15.4
      vertex 1.50327 2.875 15.7
    endloop
  endfacet
  facet normal -0.481753 -0.876307 0
    outer loop
      vertex 1.38378 2.94069 9
      vertex 1.50327 2.875 15.4
      vertex 1.38378 2.94069 15.7
    endloop
  endfacet
  facet normal -0.481744 -0.876312 -2.14999e-07
    outer loop
      vertex 1.74144 2.74407 9
      vertex 1.50327 2.875 15.4
      vertex 1.38378 2.94069 9
    endloop
  endfacet
  facet normal -0.481739 -0.876315 0
    outer loop
      vertex 1.50327 2.875 15.4
      vertex 1.74144 2.74407 9
      vertex 1.74144 2.74407 15.4
    endloop
  endfacet
  facet normal 0.844317 -0.535845 0
    outer loop
      vertex -2.848 1.5657 15.4
      vertex -2.6293 1.9103 9
      vertex -2.6293 1.9103 15.4
    endloop
  endfacet
  facet normal 0.844317 -0.535845 0
    outer loop
      vertex -2.6293 1.9103 9
      vertex -2.848 1.5657 15.4
      vertex -2.848 1.5657 9
    endloop
  endfacet
  facet normal 0.982286 -0.187387 0
    outer loop
      vertex -3.22437 0.407332 16
      vertex -3.14789 0.808242 9
      vertex -3.14789 0.808242 16
    endloop
  endfacet
  facet normal 0.982286 -0.187387 0
    outer loop
      vertex -3.14789 0.808242 9
      vertex -3.22437 0.407332 16
      vertex -3.22437 0.407332 9
    endloop
  endfacet
  facet normal 0.58779 -0.809014 0
    outer loop
      vertex -2.07163 2.50417 9
      vertex -1.74144 2.74407 15.4
      vertex -2.07163 2.50417 15.4
    endloop
  endfacet
  facet normal 0.58779 -0.809014 0
    outer loop
      vertex -1.74144 2.74407 15.4
      vertex -2.07163 2.50417 9
      vertex -1.74144 2.74407 9
    endloop
  endfacet
  facet normal 0.248693 -0.968582 0
    outer loop
      vertex -1.0043 3.09093 9
      vertex -0.608989 3.19243 15.7
      vertex -1.0043 3.09093 15.7
    endloop
  endfacet
  facet normal 0.248693 -0.968582 0
    outer loop
      vertex -0.608989 3.19243 15.7
      vertex -1.0043 3.09093 9
      vertex -0.608989 3.19243 9
    endloop
  endfacet
  facet normal -0.998026 0.0627975 0
    outer loop
      vertex 3.22437 -0.407332 9
      vertex 3.25 0 16
      vertex 3.25 0 9
    endloop
  endfacet
  facet normal -0.998026 0.0627975 0
    outer loop
      vertex 3.25 0 16
      vertex 3.22437 -0.407332 9
      vertex 3.22437 -0.407332 16
    endloop
  endfacet
  facet normal -0.951057 0.309017 0
    outer loop
      vertex 3.02177 -1.1964 9
      vertex 3.14789 -0.808242 16
      vertex 3.14789 -0.808242 9
    endloop
  endfacet
  facet normal -0.951057 0.309017 0
    outer loop
      vertex 3.14789 -0.808242 16
      vertex 3.02177 -1.1964 9
      vertex 3.02177 -1.1964 16
    endloop
  endfacet
  facet normal -0.982286 0.187387 0
    outer loop
      vertex 3.14789 -0.808242 9
      vertex 3.22437 -0.407332 16
      vertex 3.22437 -0.407332 9
    endloop
  endfacet
  facet normal -0.982286 0.187387 0
    outer loop
      vertex 3.22437 -0.407332 16
      vertex 3.14789 -0.808242 9
      vertex 3.14789 -0.808242 16
    endloop
  endfacet
  facet normal 0.904831 0.42577 -0
    outer loop
      vertex -2.875 -1.50831 15.4
      vertex -3.02177 -1.1964 16
      vertex -2.875 -1.50831 16
    endloop
  endfacet
  facet normal 0.904831 0.42577 0
    outer loop
      vertex -3.02177 -1.1964 16
      vertex -2.875 -1.50831 15.4
      vertex -3.02177 -1.1964 9
    endloop
  endfacet
  facet normal 0.904862 0.425706 -0
    outer loop
      vertex -2.848 -1.5657 9
      vertex -2.875 -1.50831 15.4
      vertex -2.848 -1.5657 15.4
    endloop
  endfacet
  facet normal 0.904836 0.42576 -5.97336e-07
    outer loop
      vertex -2.875 -1.50831 15.4
      vertex -2.848 -1.5657 9
      vertex -3.02177 -1.1964 9
    endloop
  endfacet
  facet normal -0.58779 0.809014 0
    outer loop
      vertex 2.07163 -2.50417 9
      vertex 1.74144 -2.74407 15.4
      vertex 2.07163 -2.50417 15.4
    endloop
  endfacet
  facet normal -0.58779 0.809014 0
    outer loop
      vertex 1.74144 -2.74407 15.4
      vertex 2.07163 -2.50417 9
      vertex 1.74144 -2.74407 9
    endloop
  endfacet
  facet normal 0.951057 0.309017 0
    outer loop
      vertex -3.02177 -1.1964 16
      vertex -3.14789 -0.808242 9
      vertex -3.14789 -0.808242 16
    endloop
  endfacet
  facet normal 0.951057 0.309017 0
    outer loop
      vertex -3.14789 -0.808242 9
      vertex -3.02177 -1.1964 16
      vertex -3.02177 -1.1964 9
    endloop
  endfacet
  facet normal -0.684547 0.728968 0
    outer loop
      vertex 2.36915 -2.22478 9
      vertex 2.07163 -2.50417 15.4
      vertex 2.36915 -2.22478 15.4
    endloop
  endfacet
  facet normal -0.684547 0.728968 0
    outer loop
      vertex 2.07163 -2.50417 15.4
      vertex 2.36915 -2.22478 9
      vertex 2.07163 -2.50417 9
    endloop
  endfacet
  facet normal -0.248693 0.968582 0
    outer loop
      vertex 1.0043 -3.09093 9
      vertex 0.608989 -3.19243 15.7
      vertex 1.0043 -3.09093 15.7
    endloop
  endfacet
  facet normal -0.248693 0.968582 0
    outer loop
      vertex 0.608989 -3.19243 15.7
      vertex 1.0043 -3.09093 9
      vertex 0.608989 -3.19243 9
    endloop
  endfacet
  facet normal -0.904831 0.42577 0
    outer loop
      vertex 3.02177 -1.1964 9
      vertex 2.875 -1.50831 15.4
      vertex 3.02177 -1.1964 16
    endloop
  endfacet
  facet normal -0.904836 0.42576 -5.97336e-07
    outer loop
      vertex 2.848 -1.5657 9
      vertex 2.875 -1.50831 15.4
      vertex 3.02177 -1.1964 9
    endloop
  endfacet
  facet normal -0.904862 0.425706 0
    outer loop
      vertex 2.875 -1.50831 15.4
      vertex 2.848 -1.5657 9
      vertex 2.848 -1.5657 15.4
    endloop
  endfacet
  facet normal -0.904831 0.42577 0
    outer loop
      vertex 3.02177 -1.1964 16
      vertex 2.875 -1.50831 15.4
      vertex 2.875 -1.50831 16
    endloop
  endfacet
  facet normal -0.844317 0.535845 0
    outer loop
      vertex 2.6293 -1.9103 9
      vertex 2.848 -1.5657 15.4
      vertex 2.848 -1.5657 9
    endloop
  endfacet
  facet normal -0.844317 0.535845 0
    outer loop
      vertex 2.848 -1.5657 15.4
      vertex 2.6293 -1.9103 9
      vertex 2.6293 -1.9103 15.4
    endloop
  endfacet
  facet normal 0.125349 0.992113 -0
    outer loop
      vertex -0.204069 -3.24359 9
      vertex -0.608989 -3.19243 15.7
      vertex -0.204069 -3.24359 15.7
    endloop
  endfacet
  facet normal 0.125349 0.992113 0
    outer loop
      vertex -0.608989 -3.19243 15.7
      vertex -0.204069 -3.24359 9
      vertex -0.608989 -3.19243 9
    endloop
  endfacet
  facet normal 0.248693 0.968582 -0
    outer loop
      vertex -0.608989 -3.19243 9
      vertex -1.0043 -3.09093 15.7
      vertex -0.608989 -3.19243 15.7
    endloop
  endfacet
  facet normal 0.248693 0.968582 0
    outer loop
      vertex -1.0043 -3.09093 15.7
      vertex -0.608989 -3.19243 9
      vertex -1.0043 -3.09093 9
    endloop
  endfacet
  facet normal 0.770526 0.637409 0
    outer loop
      vertex -2.36915 -2.22478 15.4
      vertex -2.6293 -1.9103 9
      vertex -2.6293 -1.9103 15.4
    endloop
  endfacet
  facet normal 0.770526 0.637409 0
    outer loop
      vertex -2.6293 -1.9103 9
      vertex -2.36915 -2.22478 15.4
      vertex -2.36915 -2.22478 9
    endloop
  endfacet
  facet normal 0.684547 0.728968 -0
    outer loop
      vertex -2.07163 -2.50417 9
      vertex -2.36915 -2.22478 15.4
      vertex -2.07163 -2.50417 15.4
    endloop
  endfacet
  facet normal 0.684547 0.728968 0
    outer loop
      vertex -2.36915 -2.22478 15.4
      vertex -2.07163 -2.50417 9
      vertex -2.36915 -2.22478 9
    endloop
  endfacet
  facet normal 0.982286 0.187387 0
    outer loop
      vertex -3.14789 -0.808242 16
      vertex -3.22437 -0.407332 9
      vertex -3.22437 -0.407332 16
    endloop
  endfacet
  facet normal 0.982286 0.187387 0
    outer loop
      vertex -3.22437 -0.407332 9
      vertex -3.14789 -0.808242 16
      vertex -3.14789 -0.808242 9
    endloop
  endfacet
  facet normal 0.998026 0.0627975 0
    outer loop
      vertex -3.22437 -0.407332 16
      vertex -3.25 0 9
      vertex -3.25 0 16
    endloop
  endfacet
  facet normal 0.998026 0.0627975 0
    outer loop
      vertex -3.25 0 9
      vertex -3.22437 -0.407332 16
      vertex -3.22437 -0.407332 9
    endloop
  endfacet
  facet normal -0.770526 0.637409 0
    outer loop
      vertex 2.36915 -2.22478 9
      vertex 2.6293 -1.9103 15.4
      vertex 2.6293 -1.9103 9
    endloop
  endfacet
  facet normal -0.770526 0.637409 0
    outer loop
      vertex 2.6293 -1.9103 15.4
      vertex 2.36915 -2.22478 9
      vertex 2.36915 -2.22478 15.4
    endloop
  endfacet
  facet normal 0.58779 0.809014 -0
    outer loop
      vertex -1.74144 -2.74407 9
      vertex -2.07163 -2.50417 15.4
      vertex -1.74144 -2.74407 15.4
    endloop
  endfacet
  facet normal 0.58779 0.809014 0
    outer loop
      vertex -2.07163 -2.50417 15.4
      vertex -1.74144 -2.74407 9
      vertex -2.07163 -2.50417 9
    endloop
  endfacet
  facet normal 0.844317 0.535845 0
    outer loop
      vertex -2.6293 -1.9103 15.4
      vertex -2.848 -1.5657 9
      vertex -2.848 -1.5657 15.4
    endloop
  endfacet
  facet normal 0.844317 0.535845 0
    outer loop
      vertex -2.848 -1.5657 9
      vertex -2.6293 -1.9103 15.4
      vertex -2.6293 -1.9103 9
    endloop
  endfacet
  facet normal -0.36811 0.929782 0
    outer loop
      vertex 1.38378 -2.94069 9
      vertex 1.0043 -3.09093 15.7
      vertex 1.38378 -2.94069 15.7
    endloop
  endfacet
  facet normal -0.36811 0.929782 0
    outer loop
      vertex 1.0043 -3.09093 15.7
      vertex 1.38378 -2.94069 9
      vertex 1.0043 -3.09093 9
    endloop
  endfacet
  facet normal 0.36811 0.929782 -0
    outer loop
      vertex -1.0043 -3.09093 9
      vertex -1.38378 -2.94069 15.7
      vertex -1.0043 -3.09093 15.7
    endloop
  endfacet
  facet normal 0.36811 0.929782 0
    outer loop
      vertex -1.38378 -2.94069 15.7
      vertex -1.0043 -3.09093 9
      vertex -1.38378 -2.94069 9
    endloop
  endfacet
  facet normal 0.481753 0.876307 0
    outer loop
      vertex -1.38378 -2.94069 15.7
      vertex -1.50327 -2.875 15.4
      vertex -1.50327 -2.875 15.7
    endloop
  endfacet
  facet normal 0.481753 0.876307 -0
    outer loop
      vertex -1.38378 -2.94069 9
      vertex -1.50327 -2.875 15.4
      vertex -1.38378 -2.94069 15.7
    endloop
  endfacet
  facet normal 0.481744 0.876312 -2.14999e-07
    outer loop
      vertex -1.74144 -2.74407 9
      vertex -1.50327 -2.875 15.4
      vertex -1.38378 -2.94069 9
    endloop
  endfacet
  facet normal 0.481739 0.876315 0
    outer loop
      vertex -1.50327 -2.875 15.4
      vertex -1.74144 -2.74407 9
      vertex -1.74144 -2.74407 15.4
    endloop
  endfacet
  facet normal 0.866025 -0.500001 0
    outer loop
      vertex -5.91425 0 21
      vertex -2.95712 5.12189 16
      vertex -2.95712 5.12189 21
    endloop
  endfacet
  facet normal 0.866025 -0.500001 0
    outer loop
      vertex -2.95712 5.12189 16
      vertex -5.91425 0 21
      vertex -5.91425 0 16
    endloop
  endfacet
  facet normal 0 -1 0
    outer loop
      vertex -2.95712 5.12189 16
      vertex 2.95712 5.12189 21
      vertex -2.95712 5.12189 21
    endloop
  endfacet
  facet normal 0 -1 -0
    outer loop
      vertex 2.95712 5.12189 21
      vertex -2.95712 5.12189 16
      vertex 2.95712 5.12189 16
    endloop
  endfacet
  facet normal -0.866025 0.500001 0
    outer loop
      vertex 2.95712 -5.12189 16
      vertex 5.91425 0 21
      vertex 5.91425 0 16
    endloop
  endfacet
  facet normal -0.866025 0.500001 0
    outer loop
      vertex 5.91425 0 21
      vertex 2.95712 -5.12189 16
      vertex 2.95712 -5.12189 21
    endloop
  endfacet
  facet normal -0.866025 -0.500001 0
    outer loop
      vertex 5.91425 0 16
      vertex 2.95712 5.12189 21
      vertex 2.95712 5.12189 16
    endloop
  endfacet
  facet normal -0.866025 -0.500001 0
    outer loop
      vertex 2.95712 5.12189 21
      vertex 5.91425 0 16
      vertex 5.91425 0 21
    endloop
  endfacet
  facet normal 0 1 -0
    outer loop
      vertex 2.95712 -5.12189 16
      vertex -2.95712 -5.12189 21
      vertex 2.95712 -5.12189 21
    endloop
  endfacet
  facet normal 0 1 0
    outer loop
      vertex -2.95712 -5.12189 21
      vertex 2.95712 -5.12189 16
      vertex -2.95712 -5.12189 16
    endloop
  endfacet
  facet normal 0.866025 0.500001 0
    outer loop
      vertex -2.95712 -5.12189 21
      vertex -5.91425 0 16
      vertex -5.91425 0 21
    endloop
  endfacet
  facet normal 0.866025 0.500001 0
    outer loop
      vertex -5.91425 0 16
      vertex -2.95712 -5.12189 21
      vertex -2.95712 -5.12189 16
    endloop
  endfacet
  facet normal 0.844328 0.535826 0
    outer loop
      vertex 7.88676 4.33578 21
      vertex 7.28115 5.29007 9
      vertex 7.28115 5.29007 21
    endloop
  endfacet
  facet normal 0.844328 0.535826 0
    outer loop
      vertex 7.28115 5.29007 9
      vertex 7.88676 4.33578 21
      vertex 7.88676 4.33578 9
    endloop
  endfacet
  facet normal 0.248685 0.968585 -0
    outer loop
      vertex 2.78115 8.55951 9
      vertex 1.68643 8.84058 21
      vertex 2.78115 8.55951 21
    endloop
  endfacet
  facet normal 0.248685 0.968585 0
    outer loop
      vertex 1.68643 8.84058 21
      vertex 2.78115 8.55951 9
      vertex 1.68643 8.84058 9
    endloop
  endfacet
  facet normal 0.368128 0.929775 -0
    outer loop
      vertex 3.83201 8.14344 9
      vertex 2.78115 8.55951 21
      vertex 3.83201 8.14344 21
    endloop
  endfacet
  facet normal 0.368128 0.929775 0
    outer loop
      vertex 2.78115 8.55951 21
      vertex 3.83201 8.14344 9
      vertex 2.78115 8.55951 9
    endloop
  endfacet
  facet normal -0.368128 0.929775 0
    outer loop
      vertex -2.78115 8.55951 9
      vertex -3.83201 8.14344 21
      vertex -2.78115 8.55951 21
    endloop
  endfacet
  facet normal -0.368128 0.929775 0
    outer loop
      vertex -3.83201 8.14344 21
      vertex -2.78115 8.55951 9
      vertex -3.83201 8.14344 9
    endloop
  endfacet
  facet normal -0.904826 0.425781 0
    outer loop
      vertex -8.36799 3.31312 9
      vertex -7.88676 4.33578 21
      vertex -7.88676 4.33578 9
    endloop
  endfacet
  facet normal -0.904826 0.425781 0
    outer loop
      vertex -7.88676 4.33578 21
      vertex -8.36799 3.31312 9
      vertex -8.36799 3.31312 21
    endloop
  endfacet
  facet normal 0.982288 -0.187378 0
    outer loop
      vertex 8.71725 -2.23821 21
      vertex 8.92903 -1.128 9
      vertex 8.92903 -1.128 21
    endloop
  endfacet
  facet normal 0.982288 -0.187378 0
    outer loop
      vertex 8.92903 -1.128 9
      vertex 8.71725 -2.23821 21
      vertex 8.71725 -2.23821 9
    endloop
  endfacet
  facet normal 0.982288 0.187378 0
    outer loop
      vertex 8.92903 1.128 21
      vertex 8.71725 2.23821 9
      vertex 8.71725 2.23821 21
    endloop
  endfacet
  facet normal 0.982288 0.187378 0
    outer loop
      vertex 8.71725 2.23821 9
      vertex 8.92903 1.128 21
      vertex 8.92903 1.128 9
    endloop
  endfacet
  facet normal 0.481751 0.876308 -0
    outer loop
      vertex 4.82244 7.59895 9
      vertex 3.83201 8.14344 21
      vertex 4.82244 7.59895 21
    endloop
  endfacet
  facet normal 0.481751 0.876308 0
    outer loop
      vertex 3.83201 8.14344 21
      vertex 4.82244 7.59895 9
      vertex 3.83201 8.14344 9
    endloop
  endfacet
  facet normal -0.770513 0.637424 0
    outer loop
      vertex -7.28115 5.29007 9
      vertex -6.56072 6.16092 21
      vertex -6.56072 6.16092 9
    endloop
  endfacet
  facet normal -0.770513 0.637424 0
    outer loop
      vertex -6.56072 6.16092 21
      vertex -7.28115 5.29007 9
      vertex -7.28115 5.29007 21
    endloop
  endfacet
  facet normal -0.248685 0.968585 0
    outer loop
      vertex -1.68643 8.84058 9
      vertex -2.78115 8.55951 21
      vertex -1.68643 8.84058 21
    endloop
  endfacet
  facet normal -0.248685 0.968585 0
    outer loop
      vertex -2.78115 8.55951 21
      vertex -1.68643 8.84058 9
      vertex -2.78115 8.55951 9
    endloop
  endfacet
  facet normal -0.68455 0.728966 0
    outer loop
      vertex -5.73682 6.93462 9
      vertex -6.56072 6.16092 21
      vertex -5.73682 6.93462 21
    endloop
  endfacet
  facet normal -0.68455 0.728966 0
    outer loop
      vertex -6.56072 6.16092 21
      vertex -5.73682 6.93462 9
      vertex -6.56072 6.16092 9
    endloop
  endfacet
  facet normal 0.998027 0.0627925 0
    outer loop
      vertex 9 0 21
      vertex 8.92903 1.128 9
      vertex 8.92903 1.128 21
    endloop
  endfacet
  facet normal 0.998027 0.0627925 0
    outer loop
      vertex 8.92903 1.128 9
      vertex 9 0 21
      vertex 9 0 9
    endloop
  endfacet
  facet normal 0.481751 -0.876308 0
    outer loop
      vertex 3.83201 -8.14344 9
      vertex 4.82244 -7.59895 21
      vertex 3.83201 -8.14344 21
    endloop
  endfacet
  facet normal 0.481751 -0.876308 0
    outer loop
      vertex 4.82244 -7.59895 21
      vertex 3.83201 -8.14344 9
      vertex 4.82244 -7.59895 9
    endloop
  endfacet
  facet normal 0.951056 -0.309017 0
    outer loop
      vertex 8.36799 -3.31312 21
      vertex 8.71725 -2.23821 9
      vertex 8.71725 -2.23821 21
    endloop
  endfacet
  facet normal 0.951056 -0.309017 0
    outer loop
      vertex 8.71725 -2.23821 9
      vertex 8.36799 -3.31312 21
      vertex 8.36799 -3.31312 9
    endloop
  endfacet
  facet normal 0.68455 0.728966 -0
    outer loop
      vertex 6.56072 6.16092 9
      vertex 5.73682 6.93462 21
      vertex 6.56072 6.16092 21
    endloop
  endfacet
  facet normal 0.68455 0.728966 0
    outer loop
      vertex 5.73682 6.93462 21
      vertex 6.56072 6.16092 9
      vertex 5.73682 6.93462 9
    endloop
  endfacet
  facet normal 0 1 -0
    outer loop
      vertex 0.565114 8.98224 9
      vertex -0.565114 8.98224 21
      vertex 0.565114 8.98224 21
    endloop
  endfacet
  facet normal 0 1 0
    outer loop
      vertex -0.565114 8.98224 21
      vertex 0.565114 8.98224 9
      vertex -0.565114 8.98224 9
    endloop
  endfacet
  facet normal 0.587782 0.80902 -0
    outer loop
      vertex 5.73682 6.93462 9
      vertex 4.82244 7.59895 21
      vertex 5.73682 6.93462 21
    endloop
  endfacet
  facet normal 0.587782 0.80902 0
    outer loop
      vertex 4.82244 7.59895 21
      vertex 5.73682 6.93462 9
      vertex 4.82244 7.59895 9
    endloop
  endfacet
  facet normal -0.998027 0.0627925 0
    outer loop
      vertex -9 0 9
      vertex -8.92903 1.128 21
      vertex -8.92903 1.128 9
    endloop
  endfacet
  facet normal -0.998027 0.0627925 0
    outer loop
      vertex -8.92903 1.128 21
      vertex -9 0 9
      vertex -9 0 21
    endloop
  endfacet
  facet normal -0.951056 0.309017 0
    outer loop
      vertex -8.71725 2.23821 9
      vertex -8.36799 3.31312 21
      vertex -8.36799 3.31312 9
    endloop
  endfacet
  facet normal -0.951056 0.309017 0
    outer loop
      vertex -8.36799 3.31312 21
      vertex -8.71725 2.23821 9
      vertex -8.71725 2.23821 21
    endloop
  endfacet
  facet normal -0.844328 0.535826 0
    outer loop
      vertex -7.88676 4.33578 9
      vertex -7.28115 5.29007 21
      vertex -7.28115 5.29007 9
    endloop
  endfacet
  facet normal -0.844328 0.535826 0
    outer loop
      vertex -7.28115 5.29007 21
      vertex -7.88676 4.33578 9
      vertex -7.88676 4.33578 21
    endloop
  endfacet
  facet normal -0.125337 0.992114 0
    outer loop
      vertex -0.565114 8.98224 9
      vertex -1.68643 8.84058 21
      vertex -0.565114 8.98224 21
    endloop
  endfacet
  facet normal -0.125337 0.992114 0
    outer loop
      vertex -1.68643 8.84058 21
      vertex -0.565114 8.98224 9
      vertex -1.68643 8.84058 9
    endloop
  endfacet
  facet normal -0.587782 0.80902 0
    outer loop
      vertex -4.82244 7.59895 9
      vertex -5.73682 6.93462 21
      vertex -4.82244 7.59895 21
    endloop
  endfacet
  facet normal -0.587782 0.80902 0
    outer loop
      vertex -5.73682 6.93462 21
      vertex -4.82244 7.59895 9
      vertex -5.73682 6.93462 9
    endloop
  endfacet
  facet normal -0.481751 0.876308 0
    outer loop
      vertex -3.83201 8.14344 9
      vertex -4.82244 7.59895 21
      vertex -3.83201 8.14344 21
    endloop
  endfacet
  facet normal -0.481751 0.876308 0
    outer loop
      vertex -4.82244 7.59895 21
      vertex -3.83201 8.14344 9
      vertex -4.82244 7.59895 9
    endloop
  endfacet
  facet normal 0.998027 -0.0627925 0
    outer loop
      vertex 8.92903 -1.128 21
      vertex 9 0 9
      vertex 9 0 21
    endloop
  endfacet
  facet normal 0.998027 -0.0627925 0
    outer loop
      vertex 9 0 9
      vertex 8.92903 -1.128 21
      vertex 8.92903 -1.128 9
    endloop
  endfacet
  facet normal 0.125337 -0.992114 0
    outer loop
      vertex 0.565114 -8.98224 9
      vertex 1.68643 -8.84058 21
      vertex 0.565114 -8.98224 21
    endloop
  endfacet
  facet normal 0.125337 -0.992114 0
    outer loop
      vertex 1.68643 -8.84058 21
      vertex 0.565114 -8.98224 9
      vertex 1.68643 -8.84058 9
    endloop
  endfacet
  facet normal 0.904826 0.425781 0
    outer loop
      vertex 8.36799 3.31312 21
      vertex 7.88676 4.33578 9
      vertex 7.88676 4.33578 21
    endloop
  endfacet
  facet normal 0.904826 0.425781 0
    outer loop
      vertex 7.88676 4.33578 9
      vertex 8.36799 3.31312 21
      vertex 8.36799 3.31312 9
    endloop
  endfacet
  facet normal 0.951056 0.309017 0
    outer loop
      vertex 8.71725 2.23821 21
      vertex 8.36799 3.31312 9
      vertex 8.36799 3.31312 21
    endloop
  endfacet
  facet normal 0.951056 0.309017 0
    outer loop
      vertex 8.36799 3.31312 9
      vertex 8.71725 2.23821 21
      vertex 8.71725 2.23821 9
    endloop
  endfacet
  facet normal 0.770513 0.637424 0
    outer loop
      vertex 7.28115 5.29007 21
      vertex 6.56072 6.16092 9
      vertex 6.56072 6.16092 21
    endloop
  endfacet
  facet normal 0.770513 0.637424 0
    outer loop
      vertex 6.56072 6.16092 9
      vertex 7.28115 5.29007 21
      vertex 7.28115 5.29007 9
    endloop
  endfacet
  facet normal 0.125337 0.992114 -0
    outer loop
      vertex 1.68643 8.84058 9
      vertex 0.565114 8.98224 21
      vertex 1.68643 8.84058 21
    endloop
  endfacet
  facet normal 0.125337 0.992114 0
    outer loop
      vertex 0.565114 8.98224 21
      vertex 1.68643 8.84058 9
      vertex 0.565114 8.98224 9
    endloop
  endfacet
  facet normal -0.982288 0.187378 0
    outer loop
      vertex -8.92903 1.128 9
      vertex -8.71725 2.23821 21
      vertex -8.71725 2.23821 9
    endloop
  endfacet
  facet normal -0.982288 0.187378 0
    outer loop
      vertex -8.71725 2.23821 21
      vertex -8.92903 1.128 9
      vertex -8.92903 1.128 21
    endloop
  endfacet
  facet normal 0.904826 -0.425781 0
    outer loop
      vertex 7.88676 -4.33578 21
      vertex 8.36799 -3.31312 9
      vertex 8.36799 -3.31312 21
    endloop
  endfacet
  facet normal 0.904826 -0.425781 0
    outer loop
      vertex 8.36799 -3.31312 9
      vertex 7.88676 -4.33578 21
      vertex 7.88676 -4.33578 9
    endloop
  endfacet
  facet normal -0.248685 -0.968585 0
    outer loop
      vertex -2.78115 -8.55951 9
      vertex -1.68643 -8.84058 21
      vertex -2.78115 -8.55951 21
    endloop
  endfacet
  facet normal -0.248685 -0.968585 -0
    outer loop
      vertex -1.68643 -8.84058 21
      vertex -2.78115 -8.55951 9
      vertex -1.68643 -8.84058 9
    endloop
  endfacet
  facet normal -0.125337 -0.992114 0
    outer loop
      vertex -1.68643 -8.84058 9
      vertex -0.565114 -8.98224 21
      vertex -1.68643 -8.84058 21
    endloop
  endfacet
  facet normal -0.125337 -0.992114 -0
    outer loop
      vertex -0.565114 -8.98224 21
      vertex -1.68643 -8.84058 9
      vertex -0.565114 -8.98224 9
    endloop
  endfacet
  facet normal -0.998027 -0.0627925 0
    outer loop
      vertex -8.92903 -1.128 9
      vertex -9 0 21
      vertex -9 0 9
    endloop
  endfacet
  facet normal -0.998027 -0.0627925 0
    outer loop
      vertex -9 0 21
      vertex -8.92903 -1.128 9
      vertex -8.92903 -1.128 21
    endloop
  endfacet
  facet normal -0.844328 -0.535826 0
    outer loop
      vertex -7.28115 -5.29007 9
      vertex -7.88676 -4.33578 21
      vertex -7.88676 -4.33578 9
    endloop
  endfacet
  facet normal -0.844328 -0.535826 0
    outer loop
      vertex -7.88676 -4.33578 21
      vertex -7.28115 -5.29007 9
      vertex -7.28115 -5.29007 21
    endloop
  endfacet
  facet normal -0.904826 -0.425781 0
    outer loop
      vertex -7.88676 -4.33578 9
      vertex -8.36799 -3.31312 21
      vertex -8.36799 -3.31312 9
    endloop
  endfacet
  facet normal -0.904826 -0.425781 0
    outer loop
      vertex -8.36799 -3.31312 21
      vertex -7.88676 -4.33578 9
      vertex -7.88676 -4.33578 21
    endloop
  endfacet
  facet normal 0.368128 -0.929775 0
    outer loop
      vertex 2.78115 -8.55951 9
      vertex 3.83201 -8.14344 21
      vertex 2.78115 -8.55951 21
    endloop
  endfacet
  facet normal 0.368128 -0.929775 0
    outer loop
      vertex 3.83201 -8.14344 21
      vertex 2.78115 -8.55951 9
      vertex 3.83201 -8.14344 9
    endloop
  endfacet
  facet normal 0.248685 -0.968585 0
    outer loop
      vertex 1.68643 -8.84058 9
      vertex 2.78115 -8.55951 21
      vertex 1.68643 -8.84058 21
    endloop
  endfacet
  facet normal 0.248685 -0.968585 0
    outer loop
      vertex 2.78115 -8.55951 21
      vertex 1.68643 -8.84058 9
      vertex 2.78115 -8.55951 9
    endloop
  endfacet
  facet normal 0.68455 -0.728966 0
    outer loop
      vertex 5.73682 -6.93462 9
      vertex 6.56072 -6.16092 21
      vertex 5.73682 -6.93462 21
    endloop
  endfacet
  facet normal 0.68455 -0.728966 0
    outer loop
      vertex 6.56072 -6.16092 21
      vertex 5.73682 -6.93462 9
      vertex 6.56072 -6.16092 9
    endloop
  endfacet
  facet normal 0.844328 -0.535826 0
    outer loop
      vertex 7.28115 -5.29007 21
      vertex 7.88676 -4.33578 9
      vertex 7.88676 -4.33578 21
    endloop
  endfacet
  facet normal 0.844328 -0.535826 0
    outer loop
      vertex 7.88676 -4.33578 9
      vertex 7.28115 -5.29007 21
      vertex 7.28115 -5.29007 9
    endloop
  endfacet
  facet normal -0.368128 -0.929775 0
    outer loop
      vertex -3.83201 -8.14344 9
      vertex -2.78115 -8.55951 21
      vertex -3.83201 -8.14344 21
    endloop
  endfacet
  facet normal -0.368128 -0.929775 -0
    outer loop
      vertex -2.78115 -8.55951 21
      vertex -3.83201 -8.14344 9
      vertex -2.78115 -8.55951 9
    endloop
  endfacet
  facet normal 0 -1 0
    outer loop
      vertex -0.565114 -8.98224 9
      vertex 0.565114 -8.98224 21
      vertex -0.565114 -8.98224 21
    endloop
  endfacet
  facet normal 0 -1 -0
    outer loop
      vertex 0.565114 -8.98224 21
      vertex -0.565114 -8.98224 9
      vertex 0.565114 -8.98224 9
    endloop
  endfacet
  facet normal 0 0 -1
    outer loop
      vertex 3.25 0 9
      vertex 9 0 9
      vertex 8.92903 -1.128 9
    endloop
  endfacet
  facet normal 0 0 -1
    outer loop
      vertex 3.22437 -0.407332 9
      vertex 8.92903 -1.128 9
      vertex 8.71725 -2.23821 9
    endloop
  endfacet
  facet normal 0 0 -1
    outer loop
      vertex 9 0 9
      vertex 3.25 0 9
      vertex 8.92903 1.128 9
    endloop
  endfacet
  facet normal 0 0 -1
    outer loop
      vertex 3.14789 -0.808242 9
      vertex 8.71725 -2.23821 9
      vertex 8.36799 -3.31312 9
    endloop
  endfacet
  facet normal 0 0 -1
    outer loop
      vertex 3.22437 0.407332 9
      vertex 8.92903 1.128 9
      vertex 3.25 0 9
    endloop
  endfacet
  facet normal 0 0 -1
    outer loop
      vertex 3.02177 -1.1964 9
      vertex 8.36799 -3.31312 9
      vertex 7.88676 -4.33578 9
    endloop
  endfacet
  facet normal -0 0 -1
    outer loop
      vertex 8.92903 1.128 9
      vertex 3.22437 0.407332 9
      vertex 8.71725 2.23821 9
    endloop
  endfacet
  facet normal 0 0 -1
    outer loop
      vertex 2.848 -1.5657 9
      vertex 7.88676 -4.33578 9
      vertex 7.28115 -5.29007 9
    endloop
  endfacet
  facet normal 0 0 -1
    outer loop
      vertex 3.14789 0.808242 9
      vertex 8.71725 2.23821 9
      vertex 3.22437 0.407332 9
    endloop
  endfacet
  facet normal 0 0 -1
    outer loop
      vertex 2.6293 -1.9103 9
      vertex 7.28115 -5.29007 9
      vertex 6.56072 -6.16092 9
    endloop
  endfacet
  facet normal -0 0 -1
    outer loop
      vertex 8.71725 2.23821 9
      vertex 3.14789 0.808242 9
      vertex 8.36799 3.31312 9
    endloop
  endfacet
  facet normal 0 0 -1
    outer loop
      vertex 2.36915 -2.22478 9
      vertex 6.56072 -6.16092 9
      vertex 5.73682 -6.93462 9
    endloop
  endfacet
  facet normal 0 0 -1
    outer loop
      vertex 3.02177 1.1964 9
      vertex 8.36799 3.31312 9
      vertex 3.14789 0.808242 9
    endloop
  endfacet
  facet normal 0 0 -1
    outer loop
      vertex 2.07163 -2.50417 9
      vertex 5.73682 -6.93462 9
      vertex 4.82244 -7.59895 9
    endloop
  endfacet
  facet normal -0 0 -1
    outer loop
      vertex 8.36799 3.31312 9
      vertex 3.02177 1.1964 9
      vertex 7.88676 4.33578 9
    endloop
  endfacet
  facet normal 0 0 -1
    outer loop
      vertex 1.74144 -2.74407 9
      vertex 4.82244 -7.59895 9
      vertex 3.83201 -8.14344 9
    endloop
  endfacet
  facet normal 0 0 -1
    outer loop
      vertex 2.848 1.5657 9
      vertex 7.88676 4.33578 9
      vertex 3.02177 1.1964 9
    endloop
  endfacet
  facet normal -0 0 -1
    outer loop
      vertex 7.88676 4.33578 9
      vertex 2.848 1.5657 9
      vertex 7.28115 5.29007 9
    endloop
  endfacet
  facet normal 0 0 -1
    outer loop
      vertex 8.92903 -1.128 9
      vertex 3.22437 -0.407332 9
      vertex 3.25 0 9
    endloop
  endfacet
  facet normal 0 0 -1
    outer loop
      vertex 8.71725 -2.23821 9
      vertex 3.14789 -0.808242 9
      vertex 3.22437 -0.407332 9
    endloop
  endfacet
  facet normal 0 0 -1
    outer loop
      vertex 8.36799 -3.31312 9
      vertex 3.02177 -1.1964 9
      vertex 3.14789 -0.808242 9
    endloop
  endfacet
  facet normal 0 0 -1
    outer loop
      vertex 7.88676 -4.33578 9
      vertex 2.848 -1.5657 9
      vertex 3.02177 -1.1964 9
    endloop
  endfacet
  facet normal 0 0 -1
    outer loop
      vertex 1.38378 -2.94069 9
      vertex 3.83201 -8.14344 9
      vertex 2.78115 -8.55951 9
    endloop
  endfacet
  facet normal 0 0 -1
    outer loop
      vertex 7.28115 -5.29007 9
      vertex 2.6293 -1.9103 9
      vertex 2.848 -1.5657 9
    endloop
  endfacet
  facet normal 0 0 -1
    outer loop
      vertex 6.56072 -6.16092 9
      vertex 2.36915 -2.22478 9
      vertex 2.6293 -1.9103 9
    endloop
  endfacet
  facet normal 0 0 -1
    outer loop
      vertex 5.73682 -6.93462 9
      vertex 2.07163 -2.50417 9
      vertex 2.36915 -2.22478 9
    endloop
  endfacet
  facet normal 0 0 -1
    outer loop
      vertex 4.82244 -7.59895 9
      vertex 1.74144 -2.74407 9
      vertex 2.07163 -2.50417 9
    endloop
  endfacet
  facet normal 0 0 -1
    outer loop
      vertex 1.0043 -3.09093 9
      vertex 2.78115 -8.55951 9
      vertex 1.68643 -8.84058 9
    endloop
  endfacet
  facet normal 0 0 -1
    outer loop
      vertex 3.83201 -8.14344 9
      vertex 1.38378 -2.94069 9
      vertex 1.74144 -2.74407 9
    endloop
  endfacet
  facet normal 0 0 -1
    outer loop
      vertex 2.78115 -8.55951 9
      vertex 1.0043 -3.09093 9
      vertex 1.38378 -2.94069 9
    endloop
  endfacet
  facet normal 0 0 -1
    outer loop
      vertex 1.68643 -8.84058 9
      vertex 0.608989 -3.19243 9
      vertex 1.0043 -3.09093 9
    endloop
  endfacet
  facet normal 0 0 -1
    outer loop
      vertex 0.565114 -8.98224 9
      vertex 0.608989 -3.19243 9
      vertex 1.68643 -8.84058 9
    endloop
  endfacet
  facet normal 0 0 -1
    outer loop
      vertex 0.565114 -8.98224 9
      vertex 0.204069 -3.24359 9
      vertex 0.608989 -3.19243 9
    endloop
  endfacet
  facet normal 0 0 -1
    outer loop
      vertex 0.565114 -8.98224 9
      vertex -0.204069 -3.24359 9
      vertex 0.204069 -3.24359 9
    endloop
  endfacet
  facet normal 0 0 -1
    outer loop
      vertex -0.565114 -8.98224 9
      vertex -0.204069 -3.24359 9
      vertex 0.565114 -8.98224 9
    endloop
  endfacet
  facet normal 0 0 -1
    outer loop
      vertex -0.565114 -8.98224 9
      vertex -0.608989 -3.19243 9
      vertex -0.204069 -3.24359 9
    endloop
  endfacet
  facet normal 0 0 -1
    outer loop
      vertex -1.68643 -8.84058 9
      vertex -0.608989 -3.19243 9
      vertex -0.565114 -8.98224 9
    endloop
  endfacet
  facet normal -0 0 -1
    outer loop
      vertex -0.608989 -3.19243 9
      vertex -1.68643 -8.84058 9
      vertex -1.0043 -3.09093 9
    endloop
  endfacet
  facet normal 0 0 -1
    outer loop
      vertex -2.78115 -8.55951 9
      vertex -1.0043 -3.09093 9
      vertex -1.68643 -8.84058 9
    endloop
  endfacet
  facet normal -0 0 -1
    outer loop
      vertex -1.0043 -3.09093 9
      vertex -2.78115 -8.55951 9
      vertex -1.38378 -2.94069 9
    endloop
  endfacet
  facet normal 0 0 -1
    outer loop
      vertex -3.83201 -8.14344 9
      vertex -1.38378 -2.94069 9
      vertex -2.78115 -8.55951 9
    endloop
  endfacet
  facet normal -0 0 -1
    outer loop
      vertex -1.38378 -2.94069 9
      vertex -3.83201 -8.14344 9
      vertex -1.74144 -2.74407 9
    endloop
  endfacet
  facet normal 0 0 -1
    outer loop
      vertex -4.82244 -7.59895 9
      vertex -1.74144 -2.74407 9
      vertex -3.83201 -8.14344 9
    endloop
  endfacet
  facet normal -0 0 -1
    outer loop
      vertex -1.74144 -2.74407 9
      vertex -4.82244 -7.59895 9
      vertex -2.07163 -2.50417 9
    endloop
  endfacet
  facet normal 0 0 -1
    outer loop
      vertex -5.73682 -6.93462 9
      vertex -2.07163 -2.50417 9
      vertex -4.82244 -7.59895 9
    endloop
  endfacet
  facet normal -0 0 -1
    outer loop
      vertex -2.07163 -2.50417 9
      vertex -5.73682 -6.93462 9
      vertex -2.36915 -2.22478 9
    endloop
  endfacet
  facet normal 0 0 -1
    outer loop
      vertex -6.56072 -6.16092 9
      vertex -2.36915 -2.22478 9
      vertex -5.73682 -6.93462 9
    endloop
  endfacet
  facet normal -0 0 -1
    outer loop
      vertex -2.36915 -2.22478 9
      vertex -6.56072 -6.16092 9
      vertex -2.6293 -1.9103 9
    endloop
  endfacet
  facet normal 0 0 -1
    outer loop
      vertex -7.28115 -5.29007 9
      vertex -2.6293 -1.9103 9
      vertex -6.56072 -6.16092 9
    endloop
  endfacet
  facet normal -0 0 -1
    outer loop
      vertex -2.6293 -1.9103 9
      vertex -7.28115 -5.29007 9
      vertex -2.848 -1.5657 9
    endloop
  endfacet
  facet normal 0 0 -1
    outer loop
      vertex 2.6293 1.9103 9
      vertex 7.28115 5.29007 9
      vertex 2.848 1.5657 9
    endloop
  endfacet
  facet normal -0 0 -1
    outer loop
      vertex 7.28115 5.29007 9
      vertex 2.6293 1.9103 9
      vertex 6.56072 6.16092 9
    endloop
  endfacet
  facet normal 0 0 -1
    outer loop
      vertex 2.36915 2.22478 9
      vertex 6.56072 6.16092 9
      vertex 2.6293 1.9103 9
    endloop
  endfacet
  facet normal -0 0 -1
    outer loop
      vertex 6.56072 6.16092 9
      vertex 2.36915 2.22478 9
      vertex 5.73682 6.93462 9
    endloop
  endfacet
  facet normal 0 0 -1
    outer loop
      vertex 2.07163 2.50417 9
      vertex 5.73682 6.93462 9
      vertex 2.36915 2.22478 9
    endloop
  endfacet
  facet normal -0 0 -1
    outer loop
      vertex 5.73682 6.93462 9
      vertex 2.07163 2.50417 9
      vertex 4.82244 7.59895 9
    endloop
  endfacet
  facet normal 0 0 -1
    outer loop
      vertex 1.74144 2.74407 9
      vertex 4.82244 7.59895 9
      vertex 2.07163 2.50417 9
    endloop
  endfacet
  facet normal -0 0 -1
    outer loop
      vertex 4.82244 7.59895 9
      vertex 1.74144 2.74407 9
      vertex 3.83201 8.14344 9
    endloop
  endfacet
  facet normal 0 0 -1
    outer loop
      vertex 1.38378 2.94069 9
      vertex 3.83201 8.14344 9
      vertex 1.74144 2.74407 9
    endloop
  endfacet
  facet normal -0 0 -1
    outer loop
      vertex 3.83201 8.14344 9
      vertex 1.38378 2.94069 9
      vertex 2.78115 8.55951 9
    endloop
  endfacet
  facet normal 0 0 -1
    outer loop
      vertex 1.0043 3.09093 9
      vertex 2.78115 8.55951 9
      vertex 1.38378 2.94069 9
    endloop
  endfacet
  facet normal -0 0 -1
    outer loop
      vertex 2.78115 8.55951 9
      vertex 1.0043 3.09093 9
      vertex 1.68643 8.84058 9
    endloop
  endfacet
  facet normal 0 0 -1
    outer loop
      vertex 0.608989 3.19243 9
      vertex 1.68643 8.84058 9
      vertex 1.0043 3.09093 9
    endloop
  endfacet
  facet normal 0 0 -1
    outer loop
      vertex 0.608989 3.19243 9
      vertex 0.565114 8.98224 9
      vertex 1.68643 8.84058 9
    endloop
  endfacet
  facet normal 0 0 -1
    outer loop
      vertex 0.204069 3.24359 9
      vertex 0.565114 8.98224 9
      vertex 0.608989 3.19243 9
    endloop
  endfacet
  facet normal 0 0 -1
    outer loop
      vertex -0.204069 3.24359 9
      vertex 0.565114 8.98224 9
      vertex 0.204069 3.24359 9
    endloop
  endfacet
  facet normal 0 0 -1
    outer loop
      vertex -0.204069 3.24359 9
      vertex -0.565114 8.98224 9
      vertex 0.565114 8.98224 9
    endloop
  endfacet
  facet normal 0 0 -1
    outer loop
      vertex -0.608989 3.19243 9
      vertex -0.565114 8.98224 9
      vertex -0.204069 3.24359 9
    endloop
  endfacet
  facet normal 0 0 -1
    outer loop
      vertex -1.68643 8.84058 9
      vertex -0.608989 3.19243 9
      vertex -1.0043 3.09093 9
    endloop
  endfacet
  facet normal 0 0 -1
    outer loop
      vertex -2.78115 8.55951 9
      vertex -1.0043 3.09093 9
      vertex -1.38378 2.94069 9
    endloop
  endfacet
  facet normal 0 0 -1
    outer loop
      vertex -0.608989 3.19243 9
      vertex -1.68643 8.84058 9
      vertex -0.565114 8.98224 9
    endloop
  endfacet
  facet normal 0 0 -1
    outer loop
      vertex -3.83201 8.14344 9
      vertex -1.38378 2.94069 9
      vertex -1.74144 2.74407 9
    endloop
  endfacet
  facet normal 0 0 -1
    outer loop
      vertex -4.82244 7.59895 9
      vertex -1.74144 2.74407 9
      vertex -2.07163 2.50417 9
    endloop
  endfacet
  facet normal 0 0 -1
    outer loop
      vertex -5.73682 6.93462 9
      vertex -2.07163 2.50417 9
      vertex -2.36915 2.22478 9
    endloop
  endfacet
  facet normal 0 0 -1
    outer loop
      vertex -6.56072 6.16092 9
      vertex -2.36915 2.22478 9
      vertex -2.6293 1.9103 9
    endloop
  endfacet
  facet normal 0 0 -1
    outer loop
      vertex -1.0043 3.09093 9
      vertex -2.78115 8.55951 9
      vertex -1.68643 8.84058 9
    endloop
  endfacet
  facet normal 0 0 -1
    outer loop
      vertex -7.28115 5.29007 9
      vertex -2.6293 1.9103 9
      vertex -2.848 1.5657 9
    endloop
  endfacet
  facet normal 0 0 -1
    outer loop
      vertex -7.88676 4.33578 9
      vertex -2.848 1.5657 9
      vertex -3.02177 1.1964 9
    endloop
  endfacet
  facet normal 0 0 -1
    outer loop
      vertex -8.36799 3.31312 9
      vertex -3.02177 1.1964 9
      vertex -3.14789 0.808242 9
    endloop
  endfacet
  facet normal 0 0 -1
    outer loop
      vertex -8.71725 2.23821 9
      vertex -3.14789 0.808242 9
      vertex -3.22437 0.407332 9
    endloop
  endfacet
  facet normal 0 0 -1
    outer loop
      vertex -8.92903 1.128 9
      vertex -3.22437 0.407332 9
      vertex -3.25 0 9
    endloop
  endfacet
  facet normal 0 0 -1
    outer loop
      vertex -7.88676 -4.33578 9
      vertex -2.848 -1.5657 9
      vertex -7.28115 -5.29007 9
    endloop
  endfacet
  facet normal 0 0 -1
    outer loop
      vertex -1.38378 2.94069 9
      vertex -3.83201 8.14344 9
      vertex -2.78115 8.55951 9
    endloop
  endfacet
  facet normal -0 0 -1
    outer loop
      vertex -2.848 -1.5657 9
      vertex -7.88676 -4.33578 9
      vertex -3.02177 -1.1964 9
    endloop
  endfacet
  facet normal 0 0 -1
    outer loop
      vertex -1.74144 2.74407 9
      vertex -4.82244 7.59895 9
      vertex -3.83201 8.14344 9
    endloop
  endfacet
  facet normal 0 0 -1
    outer loop
      vertex -8.36799 -3.31312 9
      vertex -3.02177 -1.1964 9
      vertex -7.88676 -4.33578 9
    endloop
  endfacet
  facet normal 0 0 -1
    outer loop
      vertex -2.07163 2.50417 9
      vertex -5.73682 6.93462 9
      vertex -4.82244 7.59895 9
    endloop
  endfacet
  facet normal -0 0 -1
    outer loop
      vertex -3.02177 -1.1964 9
      vertex -8.36799 -3.31312 9
      vertex -3.14789 -0.808242 9
    endloop
  endfacet
  facet normal 0 0 -1
    outer loop
      vertex -2.36915 2.22478 9
      vertex -6.56072 6.16092 9
      vertex -5.73682 6.93462 9
    endloop
  endfacet
  facet normal 0 0 -1
    outer loop
      vertex -8.71725 -2.23821 9
      vertex -3.14789 -0.808242 9
      vertex -8.36799 -3.31312 9
    endloop
  endfacet
  facet normal 0 0 -1
    outer loop
      vertex -2.6293 1.9103 9
      vertex -7.28115 5.29007 9
      vertex -6.56072 6.16092 9
    endloop
  endfacet
  facet normal -0 0 -1
    outer loop
      vertex -3.14789 -0.808242 9
      vertex -8.71725 -2.23821 9
      vertex -3.22437 -0.407332 9
    endloop
  endfacet
  facet normal 0 0 -1
    outer loop
      vertex -2.848 1.5657 9
      vertex -7.88676 4.33578 9
      vertex -7.28115 5.29007 9
    endloop
  endfacet
  facet normal 0 0 -1
    outer loop
      vertex -8.92903 -1.128 9
      vertex -3.22437 -0.407332 9
      vertex -8.71725 -2.23821 9
    endloop
  endfacet
  facet normal 0 0 -1
    outer loop
      vertex -3.02177 1.1964 9
      vertex -8.36799 3.31312 9
      vertex -7.88676 4.33578 9
    endloop
  endfacet
  facet normal -0 0 -1
    outer loop
      vertex -3.22437 -0.407332 9
      vertex -8.92903 -1.128 9
      vertex -3.25 0 9
    endloop
  endfacet
  facet normal 0 0 -1
    outer loop
      vertex -3.14789 0.808242 9
      vertex -8.71725 2.23821 9
      vertex -8.36799 3.31312 9
    endloop
  endfacet
  facet normal 0 0 -1
    outer loop
      vertex -9 0 9
      vertex -3.25 0 9
      vertex -8.92903 -1.128 9
    endloop
  endfacet
  facet normal 0 0 -1
    outer loop
      vertex -3.22437 0.407332 9
      vertex -8.92903 1.128 9
      vertex -8.71725 2.23821 9
    endloop
  endfacet
  facet normal 0 0 -1
    outer loop
      vertex -3.25 0 9
      vertex -9 0 9
      vertex -8.92903 1.128 9
    endloop
  endfacet
  facet normal -0.770513 -0.637424 0
    outer loop
      vertex -6.56072 -6.16092 9
      vertex -7.28115 -5.29007 21
      vertex -7.28115 -5.29007 9
    endloop
  endfacet
  facet normal -0.770513 -0.637424 0
    outer loop
      vertex -7.28115 -5.29007 21
      vertex -6.56072 -6.16092 9
      vertex -6.56072 -6.16092 21
    endloop
  endfacet
  facet normal -0.68455 -0.728966 0
    outer loop
      vertex -6.56072 -6.16092 9
      vertex -5.73682 -6.93462 21
      vertex -6.56072 -6.16092 21
    endloop
  endfacet
  facet normal -0.68455 -0.728966 -0
    outer loop
      vertex -5.73682 -6.93462 21
      vertex -6.56072 -6.16092 9
      vertex -5.73682 -6.93462 9
    endloop
  endfacet
  facet normal 0.770513 -0.637424 0
    outer loop
      vertex 6.56072 -6.16092 21
      vertex 7.28115 -5.29007 9
      vertex 7.28115 -5.29007 21
    endloop
  endfacet
  facet normal 0.770513 -0.637424 0
    outer loop
      vertex 7.28115 -5.29007 9
      vertex 6.56072 -6.16092 21
      vertex 6.56072 -6.16092 9
    endloop
  endfacet
  facet normal 0.587782 -0.80902 0
    outer loop
      vertex 4.82244 -7.59895 9
      vertex 5.73682 -6.93462 21
      vertex 4.82244 -7.59895 21
    endloop
  endfacet
  facet normal 0.587782 -0.80902 0
    outer loop
      vertex 5.73682 -6.93462 21
      vertex 4.82244 -7.59895 9
      vertex 5.73682 -6.93462 9
    endloop
  endfacet
  facet normal -0.587782 -0.80902 0
    outer loop
      vertex -5.73682 -6.93462 9
      vertex -4.82244 -7.59895 21
      vertex -5.73682 -6.93462 21
    endloop
  endfacet
  facet normal -0.587782 -0.80902 -0
    outer loop
      vertex -4.82244 -7.59895 21
      vertex -5.73682 -6.93462 9
      vertex -4.82244 -7.59895 9
    endloop
  endfacet
  facet normal -0.951056 -0.309017 0
    outer loop
      vertex -8.36799 -3.31312 9
      vertex -8.71725 -2.23821 21
      vertex -8.71725 -2.23821 9
    endloop
  endfacet
  facet normal -0.951056 -0.309017 0
    outer loop
      vertex -8.71725 -2.23821 21
      vertex -8.36799 -3.31312 9
      vertex -8.36799 -3.31312 21
    endloop
  endfacet
  facet normal -0.982288 -0.187378 0
    outer loop
      vertex -8.71725 -2.23821 9
      vertex -8.92903 -1.128 21
      vertex -8.92903 -1.128 9
    endloop
  endfacet
  facet normal -0.982288 -0.187378 0
    outer loop
      vertex -8.92903 -1.128 21
      vertex -8.71725 -2.23821 9
      vertex -8.71725 -2.23821 21
    endloop
  endfacet
  facet normal -0.481751 -0.876308 0
    outer loop
      vertex -4.82244 -7.59895 9
      vertex -3.83201 -8.14344 21
      vertex -4.82244 -7.59895 21
    endloop
  endfacet
  facet normal -0.481751 -0.876308 -0
    outer loop
      vertex -3.83201 -8.14344 21
      vertex -4.82244 -7.59895 9
      vertex -3.83201 -8.14344 9
    endloop
  endfacet
endsolid OpenSCAD_Model
